{"glyphs":{"0":{"ha":757,"x_min":99,"x_max":658,"o":"m 489 882 l 268 882 q 196 807 196 882 l 196 164 q 268 89 196 89 l 489 89 q 561 164 561 89 l 561 807 q 489 882 561 882 m 492 0 l 265 0 q 141 43 183 0 q 99 167 99 86 l 99 806 q 141 928 99 885 q 265 972 183 972 l 492 972 q 615 928 572 972 q 658 806 658 885 l 658 167 q 615 44 658 88 q 492 0 572 0 z "},"1":{"ha":531,"x_min":22,"x_max":508,"o":"m 508 89 l 508 0 l 22 0 l 22 89 l 217 89 l 217 882 l 57 824 l 40 911 l 217 972 l 314 972 l 314 89 l 508 89 z "},"2":{"ha":693,"x_min":82,"x_max":608,"o":"m 221 972 l 432 972 q 556 928 513 972 q 599 806 599 885 l 599 632 q 583 554 599 585 q 529 492 568 524 l 238 238 q 200 197 208 214 q 192 149 192 179 l 192 89 l 608 89 l 608 0 l 94 0 l 94 149 q 171 304 94 243 l 458 547 q 494 583 486 569 q 501 632 501 597 l 501 807 q 429 882 501 882 l 221 882 l 107 849 l 82 933 l 221 972 z "},"3":{"ha":703,"x_min":50,"x_max":611,"o":"m 317 569 l 444 569 q 569 526 526 569 q 611 403 611 482 l 611 167 q 569 43 611 86 q 444 0 526 0 l 188 0 l 50 38 l 74 122 l 188 89 l 442 89 q 514 164 514 89 l 514 404 q 442 479 514 479 l 199 479 l 199 569 l 469 882 l 58 882 l 58 972 l 586 972 l 586 881 l 317 569 z "},"4":{"ha":724,"x_min":29,"x_max":681,"o":"m 467 289 l 467 814 l 135 289 l 467 289 m 29 290 l 467 972 l 564 972 l 564 289 l 681 289 l 681 201 l 564 201 l 564 0 l 467 0 l 467 201 l 29 201 l 29 290 z "},"5":{"ha":718,"x_min":71,"x_max":629,"o":"m 107 972 l 597 972 l 597 882 l 204 882 l 204 588 l 289 613 l 463 613 q 587 569 544 613 q 629 446 629 525 l 629 167 q 587 44 629 88 q 463 0 544 0 l 208 0 l 71 38 l 94 122 l 208 89 l 453 89 q 510 106 489 89 q 532 164 532 124 l 532 447 q 514 505 532 488 q 460 522 496 522 l 293 522 l 201 496 l 107 496 l 107 972 z "},"6":{"ha":743,"x_min":99,"x_max":658,"o":"m 265 972 l 496 972 l 633 933 l 610 849 l 496 882 l 268 882 q 196 807 196 882 l 196 549 q 300 583 238 583 l 492 583 q 615 540 572 583 q 658 417 658 496 l 658 167 q 615 44 658 88 q 492 0 572 0 l 265 0 q 141 43 183 0 q 99 167 99 86 l 99 806 q 141 928 99 885 q 265 972 183 972 m 268 89 l 489 89 q 561 164 561 89 l 561 418 q 489 493 561 493 l 300 493 q 196 417 203 493 l 196 164 q 268 89 196 89 z "},"7":{"ha":569,"x_min":18,"x_max":553,"o":"m 553 972 l 553 882 l 254 0 l 157 0 l 454 882 l 18 882 l 18 972 l 553 972 z "},"8":{"ha":771,"x_min":92,"x_max":679,"o":"m 258 0 q 134 43 176 0 q 92 167 92 86 l 92 351 q 194 507 92 474 l 211 507 l 211 513 l 194 513 q 124 647 124 547 l 124 806 q 167 928 124 885 q 290 972 210 972 l 481 972 q 604 928 561 972 q 647 806 647 885 l 647 647 q 576 513 647 547 l 560 513 l 560 507 l 576 507 q 679 351 679 474 l 679 167 q 637 43 679 86 q 513 0 594 0 l 258 0 m 494 451 l 276 451 q 213 428 236 451 q 189 363 189 406 l 189 164 q 261 89 189 89 l 510 89 q 582 164 582 89 l 582 363 q 558 428 582 406 q 494 451 535 451 m 478 882 l 293 882 q 221 807 221 882 l 221 629 q 244 564 221 588 q 307 540 268 540 l 464 540 q 526 564 503 540 q 550 629 550 588 l 550 807 q 478 882 550 882 z "},"9":{"ha":750,"x_min":92,"x_max":651,"o":"m 485 0 l 254 0 l 115 38 l 140 122 l 254 89 l 482 89 q 554 164 554 89 l 554 424 q 450 389 511 389 l 258 389 q 134 432 176 389 q 92 556 92 475 l 92 806 q 134 928 92 885 q 258 972 176 972 l 485 972 q 608 928 565 972 q 651 806 651 885 l 651 167 q 608 44 651 88 q 485 0 565 0 m 482 882 l 261 882 q 189 807 189 882 l 189 553 q 261 478 189 478 l 450 478 q 554 554 546 478 l 554 807 q 482 882 554 882 z "}," ":{"ha":317,"x_min":0,"x_max":0,"o":""},"!":{"ha":258,"x_min":65,"x_max":196,"o":"m 94 236 l 81 806 l 81 1042 l 178 1042 l 178 804 l 167 236 l 94 236 m 143 -11 l 118 -11 q 80 4 94 -11 q 65 42 65 19 l 65 67 q 80 105 65 90 q 118 119 94 119 l 143 119 q 181 105 167 119 q 196 67 196 90 l 196 42 q 181 3 196 18 q 143 -11 167 -11 z "},"\"":{"ha":458,"x_min":106,"x_max":353,"o":"m 113 721 l 106 972 l 185 972 l 176 721 l 113 721 m 281 721 l 274 972 l 353 972 l 344 721 l 281 721 z "},"#":{"ha":1040,"x_min":113,"x_max":926,"o":"m 225 621 l 225 701 l 371 701 l 443 997 l 525 972 l 458 701 l 686 701 l 758 997 l 840 972 l 774 701 l 926 701 l 926 621 l 754 621 l 690 354 l 814 354 l 814 274 l 671 274 l 599 -21 l 517 0 l 582 274 l 356 274 l 283 -21 l 201 0 l 267 274 l 113 274 l 113 354 l 286 354 l 351 621 l 225 621 m 439 621 l 375 354 l 601 354 l 667 621 l 439 621 z "},"$":{"ha":582,"x_min":60,"x_max":550,"o":"m 349 903 l 390 903 l 529 864 l 504 779 l 390 813 l 240 813 q 183 792 204 813 q 161 731 161 771 l 161 703 q 171 641 161 664 q 211 599 181 618 l 471 432 q 535 369 519 401 q 550 288 550 336 l 550 243 q 504 116 550 163 q 376 69 458 69 l 349 69 l 349 -56 l 265 -56 l 265 69 l 197 69 l 60 107 l 83 192 l 197 158 l 374 158 q 431 180 410 158 q 453 240 453 201 l 453 275 q 444 331 453 315 q 399 371 435 347 l 150 528 q 64 692 64 582 l 64 729 q 110 856 64 808 q 238 903 157 903 l 265 903 l 265 1028 l 349 1028 l 349 903 z "},"%":{"ha":1054,"x_min":78,"x_max":976,"o":"m 336 -25 l 257 7 l 711 994 l 790 965 l 336 -25 m 275 546 l 242 546 q 120 589 163 546 q 78 710 78 632 l 78 808 q 120 929 78 886 q 242 972 163 972 l 275 972 q 397 929 354 972 q 439 808 439 886 l 439 710 q 397 589 439 632 q 275 546 354 546 m 356 710 l 356 808 q 275 894 356 894 l 242 894 q 161 808 161 894 l 161 710 q 242 624 161 624 l 275 624 q 356 710 356 624 m 813 0 l 779 0 q 658 44 700 0 q 615 164 615 88 l 615 263 q 658 384 615 342 q 779 426 700 426 l 813 426 q 934 384 892 426 q 976 263 976 342 l 976 164 q 934 44 976 88 q 813 0 892 0 m 893 164 l 893 263 q 813 349 893 349 l 779 349 q 699 263 699 349 l 699 164 q 779 78 699 78 l 813 78 q 893 164 893 78 z "},"&":{"ha":675,"x_min":43,"x_max":675,"o":"m 474 517 l 364 517 l 364 607 l 675 607 l 675 517 l 571 517 l 571 36 l 456 6 q 436 0 447 3 l 210 0 q 85 43 128 0 q 43 167 43 86 l 43 417 q 146 572 43 542 l 163 572 l 163 578 l 146 578 q 75 713 75 614 l 75 806 q 118 928 75 885 q 242 972 161 972 l 431 972 l 569 933 l 544 849 l 431 882 l 244 882 q 172 807 172 882 l 172 714 q 258 607 172 607 l 338 607 l 338 517 l 250 517 q 140 428 140 517 l 140 164 q 213 89 140 89 l 436 89 l 474 100 l 474 517 z "},"'":{"ha":290,"x_min":106,"x_max":185,"o":"m 113 721 l 106 972 l 185 972 l 176 721 l 113 721 z "},"(":{"ha":419,"x_min":106,"x_max":363,"o":"m 196 417 l 229 -111 q 265 -210 235 -186 q 363 -235 294 -235 l 363 -319 l 349 -319 q 140 -111 154 -319 l 106 417 l 140 883 q 349 1092 156 1092 l 363 1092 l 363 1007 q 265 983 296 1007 q 229 883 235 958 l 196 417 z "},")":{"ha":419,"x_min":57,"x_max":314,"o":"m 190 -111 l 224 417 l 190 883 q 154 983 185 958 q 57 1007 124 1007 l 57 1092 q 279 883 263 1092 l 314 417 l 279 -111 q 57 -319 265 -319 l 57 -235 q 154 -210 124 -235 q 190 -111 185 -186 z "},"*":{"ha":617,"x_min":81,"x_max":543,"o":"m 415 543 l 311 697 l 208 543 l 143 586 l 261 736 l 81 788 l 103 863 l 281 797 l 274 986 l 350 986 l 343 797 l 519 863 l 543 788 l 363 736 l 479 586 l 415 543 z "},"+":{"ha":640,"x_min":106,"x_max":535,"o":"m 106 353 l 106 438 l 278 438 l 278 610 l 363 610 l 363 438 l 535 438 l 535 353 l 363 353 l 363 181 l 278 181 l 278 353 l 106 353 z "},",":{"ha":335,"x_min":101,"x_max":232,"o":"m 160 -7 q 101 46 101 -7 l 101 71 q 116 109 101 94 q 154 124 131 124 l 179 124 q 217 109 203 124 q 232 71 232 94 l 232 0 l 175 -158 l 113 -136 l 160 -7 z "},"-":{"ha":640,"x_min":106,"x_max":535,"o":"m 535 336 l 106 336 l 106 421 l 535 421 l 535 336 z "},".":{"ha":344,"x_min":106,"x_max":236,"o":"m 183 -4 l 158 -4 q 121 10 136 -4 q 106 49 106 25 l 106 74 q 120 112 106 97 q 158 126 135 126 l 183 126 q 222 112 207 126 q 236 74 236 97 l 236 49 q 222 10 236 25 q 183 -4 207 -4 z "},"/":{"ha":569,"x_min":-10,"x_max":576,"o":"m 576 965 l 74 -346 l -10 -312 l 493 999 l 576 965 z "},":":{"ha":344,"x_min":106,"x_max":236,"o":"m 183 -4 l 158 -4 q 121 10 136 -4 q 106 49 106 25 l 106 74 q 120 112 106 97 q 158 126 135 126 l 183 126 q 222 112 207 126 q 236 74 236 97 l 236 49 q 222 10 236 25 q 183 -4 207 -4 m 183 503 l 158 503 q 120 517 135 503 q 106 556 106 532 l 106 581 q 121 618 106 603 q 158 633 136 633 l 183 633 q 222 619 207 633 q 236 581 236 604 l 236 556 q 222 517 236 532 q 183 503 207 503 z "},";":{"ha":356,"x_min":108,"x_max":243,"o":"m 178 -7 l 161 -7 q 123 8 138 -7 q 108 46 108 22 l 108 71 q 123 109 108 94 q 161 124 138 124 l 186 124 q 224 109 208 124 q 239 71 239 94 l 239 0 l 182 -158 l 131 -140 l 178 -7 m 190 503 l 165 503 q 127 517 142 503 q 113 556 113 532 l 113 581 q 127 618 113 603 q 165 633 142 633 l 190 633 q 228 619 214 633 q 243 581 243 604 l 243 556 q 228 517 243 532 q 190 503 214 503 z "},"<":{"ha":608,"x_min":99,"x_max":517,"o":"m 517 233 l 517 135 l 99 386 l 99 443 l 517 693 l 517 596 l 210 417 l 517 233 z "},"=":{"ha":640,"x_min":106,"x_max":535,"o":"m 535 499 l 106 499 l 106 583 l 535 583 l 535 499 m 535 290 l 106 290 l 106 375 l 535 375 l 535 290 z "},">":{"ha":608,"x_min":92,"x_max":510,"o":"m 92 135 l 92 233 l 397 417 l 92 596 l 92 693 l 510 443 l 510 386 l 92 135 z "},"?":{"ha":618,"x_min":53,"x_max":565,"o":"m 468 685 l 468 801 q 396 876 468 876 l 174 876 l 78 847 l 53 933 l 174 967 l 399 967 q 522 923 479 967 q 565 800 565 879 l 565 681 q 551 578 565 617 q 500 510 538 540 l 388 422 q 348 378 357 399 q 339 319 339 358 l 339 224 l 242 224 l 242 319 q 317 479 242 424 l 428 561 q 462 605 456 582 q 468 685 468 628 m 306 -14 l 281 -14 q 242 1 257 -14 q 228 39 228 15 l 228 64 q 242 102 228 88 q 281 117 257 117 l 306 117 q 344 102 329 117 q 358 64 358 88 l 358 39 q 343 1 358 17 q 306 -14 328 -14 z "},"@":{"ha":1063,"x_min":85,"x_max":972,"o":"m 586 735 l 254 735 q 182 660 182 735 l 182 46 q 254 -29 182 -29 l 803 -29 q 875 46 875 -29 l 875 542 l 972 542 l 972 49 q 929 -74 972 -31 q 806 -118 886 -118 l 251 -118 q 127 -75 169 -118 q 85 49 85 -32 l 85 658 q 127 781 85 738 q 251 825 169 825 l 589 825 q 713 781 669 825 q 756 658 756 738 l 756 240 l 769 131 l 675 119 l 660 243 l 504 131 l 436 131 q 312 174 354 131 q 269 297 269 217 l 269 382 q 312 505 269 461 q 436 549 354 549 l 658 549 l 658 660 q 586 735 658 735 m 439 219 l 479 219 l 658 350 l 658 463 l 439 463 q 367 388 367 463 l 367 294 q 439 219 367 219 z "},"A":{"ha":768,"x_min":36,"x_max":732,"o":"m 536 388 l 407 882 l 363 882 l 232 388 l 536 388 m 210 299 l 132 0 l 36 0 l 290 972 l 478 972 l 732 0 l 636 0 l 557 299 l 210 299 z "},"B":{"ha":771,"x_min":113,"x_max":686,"o":"m 210 89 l 517 89 q 589 164 589 89 l 589 363 q 565 428 589 406 q 501 451 542 451 l 210 451 l 210 89 m 485 882 l 210 882 l 210 540 l 471 540 q 533 564 510 540 q 557 629 557 588 l 557 807 q 485 882 557 882 m 519 0 l 113 0 l 113 972 l 488 972 q 611 928 568 972 q 654 806 654 885 l 654 647 q 583 513 654 547 l 567 513 l 567 507 l 583 507 q 686 351 686 474 l 686 167 q 644 43 686 86 q 519 0 601 0 z "},"C":{"ha":701,"x_min":99,"x_max":651,"o":"m 265 972 l 497 972 l 636 933 l 611 849 l 497 882 l 268 882 q 196 807 196 882 l 196 164 q 268 89 196 89 l 514 89 l 628 122 l 651 38 l 514 0 l 265 0 q 141 43 183 0 q 99 167 99 86 l 99 806 q 141 928 99 885 q 265 972 183 972 z "},"D":{"ha":788,"x_min":113,"x_max":689,"o":"m 113 972 l 522 972 q 647 928 604 972 q 689 806 689 885 l 689 167 q 647 43 689 86 q 522 0 604 0 l 113 0 l 113 972 m 519 882 l 210 882 l 210 89 l 519 89 q 592 164 592 89 l 592 807 q 519 882 592 882 z "},"E":{"ha":675,"x_min":113,"x_max":625,"o":"m 113 972 l 597 972 l 597 882 l 210 882 l 210 554 l 528 554 l 528 464 l 210 464 l 210 89 l 625 89 l 625 0 l 113 0 l 113 972 z "},"F":{"ha":633,"x_min":113,"x_max":583,"o":"m 113 972 l 583 972 l 583 882 l 210 882 l 210 554 l 514 554 l 514 464 l 210 464 l 210 0 l 113 0 l 113 972 z "},"G":{"ha":751,"x_min":106,"x_max":667,"o":"m 272 972 l 510 972 l 647 933 l 624 849 l 510 882 l 275 882 q 203 807 203 882 l 203 164 q 275 89 203 89 l 531 89 l 569 100 l 569 408 l 413 408 l 413 500 l 667 500 l 667 33 l 550 0 l 272 0 q 148 43 190 0 q 106 167 106 86 l 106 806 q 148 928 106 885 q 272 972 190 972 z "},"H":{"ha":806,"x_min":113,"x_max":693,"o":"m 693 972 l 693 0 l 596 0 l 596 453 l 210 453 l 210 0 l 113 0 l 113 972 l 210 972 l 210 542 l 596 542 l 596 972 l 693 972 z "},"I":{"ha":322,"x_min":113,"x_max":210,"o":"m 210 0 l 113 0 l 113 972 l 210 972 l 210 0 z "},"J":{"ha":510,"x_min":29,"x_max":397,"o":"m 200 0 l 156 0 l 29 35 l 53 119 l 156 89 l 210 89 q 300 194 300 89 l 300 972 l 397 972 l 397 194 q 347 50 397 100 q 200 0 296 0 z "},"K":{"ha":718,"x_min":113,"x_max":710,"o":"m 531 876 l 590 983 l 694 969 l 628 860 l 374 513 l 710 0 l 597 0 l 286 474 l 210 453 l 210 0 l 113 0 l 113 972 l 210 972 l 210 551 l 315 579 l 531 876 z "},"L":{"ha":615,"x_min":113,"x_max":597,"o":"m 210 89 l 597 89 l 597 0 l 113 0 l 113 972 l 210 972 l 210 89 z "},"M":{"ha":967,"x_min":113,"x_max":863,"o":"m 776 817 l 721 650 l 529 207 l 446 207 l 254 650 l 199 817 l 193 817 l 210 557 l 210 0 l 113 0 l 113 972 l 210 972 l 488 322 l 765 972 l 863 972 l 863 0 l 765 0 l 765 557 l 782 817 l 776 817 z "},"N":{"ha":806,"x_min":113,"x_max":693,"o":"m 596 0 l 257 678 l 199 817 l 193 817 l 210 557 l 210 0 l 113 0 l 113 972 l 210 972 l 547 293 l 606 154 l 611 154 l 596 414 l 596 972 l 693 972 l 693 0 l 596 0 z "},"O":{"ha":778,"x_min":99,"x_max":679,"o":"m 510 882 l 268 882 q 196 807 196 882 l 196 164 q 268 89 196 89 l 510 89 q 582 164 582 89 l 582 807 q 510 882 582 882 m 513 0 l 265 0 q 141 43 183 0 q 99 167 99 86 l 99 806 q 141 928 99 885 q 265 972 183 972 l 513 972 q 636 928 593 972 q 679 806 679 885 l 679 167 q 636 44 679 88 q 513 0 593 0 z "},"P":{"ha":736,"x_min":113,"x_max":679,"o":"m 113 972 l 513 972 q 636 928 593 972 q 679 806 679 885 l 679 549 q 636 426 679 469 q 513 382 593 382 l 210 382 l 210 0 l 113 0 l 113 972 m 210 882 l 210 471 l 510 471 q 582 546 582 471 l 582 807 q 510 882 582 882 l 210 882 z "},"Q":{"ha":778,"x_min":99,"x_max":679,"o":"m 567 -240 l 411 -85 l 361 0 l 265 0 q 141 43 183 0 q 99 167 99 86 l 99 806 q 141 928 99 885 q 265 972 183 972 l 513 972 q 636 928 593 972 q 679 806 679 885 l 679 167 q 636 44 679 88 q 513 0 593 0 l 464 0 l 485 -36 l 622 -172 l 567 -240 m 510 882 l 268 882 q 196 807 196 882 l 196 164 q 268 89 196 89 l 510 89 q 582 164 582 89 l 582 807 q 510 882 582 882 z "},"R":{"ha":754,"x_min":113,"x_max":717,"o":"m 113 972 l 506 972 q 629 928 586 972 q 672 806 672 885 l 672 576 q 629 453 672 497 q 506 410 586 410 l 432 410 l 717 0 l 600 0 l 322 410 l 210 410 l 210 0 l 113 0 l 113 972 m 210 882 l 210 499 l 503 499 q 575 574 575 499 l 575 807 q 503 882 575 882 l 210 882 z "},"S":{"ha":682,"x_min":54,"x_max":621,"o":"m 192 0 l 54 38 l 78 122 l 192 89 l 444 89 q 502 110 481 89 q 524 171 524 132 l 524 247 q 517 301 524 286 q 478 339 510 317 l 146 571 q 65 719 65 628 l 65 799 q 112 925 65 878 q 239 972 158 972 l 458 972 l 596 933 l 572 849 l 458 882 l 242 882 q 184 861 206 882 q 163 800 163 840 l 163 731 q 171 678 163 694 q 208 640 179 661 l 544 406 q 621 260 621 353 l 621 174 q 575 47 621 93 q 447 0 529 0 l 192 0 z "},"T":{"ha":614,"x_min":29,"x_max":585,"o":"m 29 972 l 585 972 l 585 882 l 356 882 l 356 0 l 258 0 l 258 882 l 29 882 l 29 972 z "},"U":{"ha":810,"x_min":113,"x_max":697,"o":"m 600 972 l 697 972 l 697 167 q 655 43 697 86 q 531 0 613 0 l 279 0 q 155 43 197 0 q 113 167 113 86 l 113 972 l 210 972 l 210 164 q 282 89 210 89 l 528 89 q 600 164 600 89 l 600 972 z "},"V":{"ha":731,"x_min":29,"x_max":682,"o":"m 575 871 l 589 982 l 682 969 l 668 860 l 418 0 l 313 0 l 29 972 l 126 972 l 336 244 l 363 111 l 367 111 l 394 244 l 575 871 z "},"W":{"ha":1181,"x_min":29,"x_max":1132,"o":"m 1025 871 l 1039 982 l 1132 969 l 1118 860 l 896 0 l 783 0 l 632 608 l 593 840 l 588 840 l 549 608 l 397 0 l 285 0 l 29 972 l 126 972 l 308 275 l 342 114 l 346 114 l 371 275 l 542 972 l 639 972 l 810 275 l 842 114 l 846 114 l 879 275 l 1025 871 z "},"X":{"ha":704,"x_min":29,"x_max":675,"o":"m 592 860 l 422 513 l 675 0 l 572 0 l 354 442 l 349 442 l 132 0 l 29 0 l 282 513 l 57 972 l 161 972 l 350 585 l 356 585 l 503 892 l 528 982 l 629 969 l 592 860 z "},"Y":{"ha":690,"x_min":32,"x_max":643,"o":"m 606 860 l 393 400 l 393 0 l 296 0 l 296 400 l 32 972 l 131 972 l 343 493 l 349 493 l 517 876 l 544 982 l 643 969 l 606 860 z "},"Z":{"ha":674,"x_min":50,"x_max":624,"o":"m 506 882 l 64 882 l 64 972 l 615 972 l 615 882 l 160 89 l 624 89 l 624 0 l 50 0 l 50 89 l 506 882 z "},"[":{"ha":376,"x_min":119,"x_max":342,"o":"m 119 1092 l 342 1092 l 342 1013 l 206 1013 l 206 -240 l 342 -240 l 342 -319 l 119 -319 l 119 1092 z "},"\\":{"ha":569,"x_min":-10,"x_max":576,"o":"m 576 -312 l 493 -346 l -10 965 l 74 999 l 576 -312 z "},"]":{"ha":376,"x_min":35,"x_max":257,"o":"m 171 1013 l 35 1013 l 35 1092 l 257 1092 l 257 -319 l 35 -319 l 35 -240 l 171 -240 l 171 1013 z "},"^":{"ha":474,"x_min":3,"x_max":469,"o":"m 235 860 l 96 624 l 3 624 l 208 972 l 264 972 l 469 624 l 375 624 l 235 860 z "},"_":{"ha":794,"x_min":8,"x_max":786,"o":"m 786 -85 l 8 -85 l 8 0 l 786 0 l 786 -85 z "},"`":{"ha":397,"x_min":65,"x_max":313,"o":"m 133 1271 l 313 1081 l 269 1044 l 65 1199 q 133 1271 74 1251 z "},"a":{"ha":653,"x_min":68,"x_max":569,"o":"m 90 656 l 229 694 l 388 694 q 512 651 469 694 q 554 528 554 607 l 554 110 l 569 0 l 474 -11 l 458 113 l 303 0 l 235 0 q 111 44 154 0 q 68 167 68 88 l 68 251 q 111 374 68 331 q 235 418 154 418 l 457 418 l 457 529 q 385 604 457 604 l 229 604 l 115 571 l 90 656 m 238 89 l 278 89 l 457 219 l 457 332 l 238 332 q 165 257 165 332 l 165 164 q 238 89 165 89 z "},"b":{"ha":669,"x_min":83,"x_max":585,"o":"m 418 -14 l 99 15 l 99 915 l 83 1029 l 179 1042 l 196 914 l 196 633 l 351 694 l 418 694 q 542 651 499 694 q 585 528 585 607 l 585 153 q 542 30 585 74 q 418 -14 499 -14 m 358 604 l 196 540 l 196 94 l 415 75 q 488 150 488 75 l 488 529 q 415 604 488 604 l 358 604 z "},"c":{"ha":576,"x_min":85,"x_max":549,"o":"m 251 694 l 404 694 l 542 656 l 518 571 l 404 604 l 254 604 q 182 529 182 604 l 182 164 q 254 89 182 89 l 411 89 l 525 122 l 549 38 l 411 0 l 251 0 q 127 43 169 0 q 85 167 85 86 l 85 528 q 127 651 85 607 q 251 694 169 694 z "},"d":{"ha":669,"x_min":76,"x_max":578,"o":"m 290 89 l 467 186 l 467 574 l 308 604 l 246 604 q 174 529 174 604 l 174 164 q 246 89 174 89 l 290 89 m 467 917 l 451 1032 l 547 1044 l 564 917 l 564 108 l 578 -1 l 483 -12 l 469 89 l 313 0 l 243 0 q 119 44 163 0 q 76 167 76 88 l 76 528 q 119 651 76 607 q 243 694 163 694 l 308 694 l 467 664 l 467 917 z "},"e":{"ha":610,"x_min":85,"x_max":550,"o":"m 251 0 q 127 43 169 0 q 85 167 85 86 l 85 528 q 127 651 85 607 q 251 694 169 694 l 383 694 q 508 651 465 694 q 550 528 550 607 l 550 383 l 474 315 l 182 315 l 182 164 q 254 89 182 89 l 400 89 l 513 122 l 538 38 l 400 0 l 251 0 m 182 529 l 182 404 l 433 404 l 453 419 l 453 529 q 381 604 453 604 l 254 604 q 182 529 182 604 z "},"f":{"ha":465,"x_min":17,"x_max":482,"o":"m 308 939 q 236 864 236 939 l 236 694 l 419 694 l 419 603 l 236 603 l 236 0 l 139 0 l 139 603 l 17 603 l 17 682 l 139 694 l 139 863 q 181 985 139 942 q 306 1029 224 1029 l 361 1029 l 482 996 l 457 911 l 361 939 l 308 939 z "},"g":{"ha":668,"x_min":85,"x_max":571,"o":"m 243 -231 l 389 -231 q 454 -207 435 -231 q 474 -132 474 -183 l 474 86 l 321 0 l 251 0 q 127 43 169 0 q 85 167 85 86 l 85 542 q 127 665 85 621 q 251 708 169 708 l 571 678 l 571 -132 q 379 -319 571 -319 l 243 -319 l 104 -282 l 129 -197 l 243 -231 m 297 89 l 474 189 l 474 600 l 254 618 q 182 543 182 618 l 182 164 q 254 89 182 89 l 297 89 z "},"h":{"ha":676,"x_min":83,"x_max":599,"o":"m 585 104 l 599 0 l 503 -11 l 488 111 l 488 513 q 469 584 488 564 q 403 604 451 604 l 371 604 l 196 507 l 196 0 l 99 0 l 99 917 l 83 1029 l 179 1042 l 196 915 l 196 608 l 349 694 l 418 694 q 542 651 499 694 q 585 528 585 607 l 585 104 z "},"i":{"ha":294,"x_min":83,"x_max":207,"o":"m 99 0 l 99 583 l 83 694 l 179 707 l 196 582 l 196 0 l 99 0 m 158 836 l 136 836 q 100 849 114 836 q 86 885 86 863 l 86 907 q 100 943 86 929 q 136 957 114 957 l 158 957 q 194 943 181 957 q 207 907 207 929 l 207 885 q 194 849 207 863 q 158 836 181 836 z "},"j":{"ha":294,"x_min":-119,"x_max":207,"o":"m 4 -324 l -37 -314 l -119 -290 l -94 -206 l -3 -233 l 14 -233 q 79 -210 60 -233 q 99 -135 99 -186 l 99 583 l 83 694 l 179 707 l 196 582 l 196 -99 q 153 -269 196 -214 q 4 -324 111 -324 m 157 836 l 135 836 q 99 849 113 836 q 86 885 86 863 l 86 907 q 99 943 86 929 q 135 957 113 957 l 157 957 q 193 943 179 957 q 207 907 207 929 l 207 885 q 193 849 207 863 q 157 836 179 836 z "},"k":{"ha":617,"x_min":83,"x_max":607,"o":"m 99 915 l 83 1029 l 179 1042 l 196 915 l 196 413 l 301 440 l 417 599 l 476 706 l 581 692 l 514 582 l 360 374 l 607 0 l 494 0 l 272 335 l 196 314 l 196 0 l 99 0 l 99 915 z "},"l":{"ha":397,"x_min":83,"x_max":374,"o":"m 196 915 l 196 142 q 210 94 197 107 q 254 81 224 81 l 276 81 l 367 106 l 374 18 l 276 -8 l 251 -8 q 133 37 167 -8 q 99 175 99 82 l 99 917 l 83 1029 l 179 1042 l 196 915 z "},"m":{"ha":1015,"x_min":85,"x_max":931,"o":"m 819 111 l 819 513 q 801 584 819 564 q 739 604 783 604 l 556 507 l 556 0 l 458 0 l 458 513 q 440 583 458 563 q 378 604 422 604 l 196 507 l 196 0 l 99 0 l 99 600 l 85 692 l 179 704 l 192 606 l 349 694 l 389 694 q 544 601 508 694 l 710 694 l 750 694 q 874 651 831 694 q 917 528 917 607 l 917 106 l 931 0 l 835 -11 l 819 111 z "},"n":{"ha":683,"x_min":85,"x_max":599,"o":"m 585 106 l 599 0 l 503 -11 l 488 111 l 488 529 q 415 604 488 604 l 371 604 l 196 507 l 196 0 l 99 0 l 99 579 l 85 692 l 179 704 l 192 606 l 349 694 l 418 694 q 542 651 499 694 q 585 528 585 607 l 585 106 z "},"o":{"ha":656,"x_min":85,"x_max":571,"o":"m 401 604 l 254 604 q 182 529 182 604 l 182 164 q 254 89 182 89 l 401 89 q 474 164 474 89 l 474 529 q 401 604 474 604 m 404 0 l 251 0 q 127 43 169 0 q 85 167 85 86 l 85 528 q 127 651 85 607 q 251 694 169 694 l 404 694 q 528 651 486 694 q 571 528 571 607 l 571 167 q 528 43 571 86 q 404 0 486 0 z "},"p":{"ha":669,"x_min":85,"x_max":585,"o":"m 99 581 l 85 692 l 179 704 l 192 606 l 349 694 l 418 694 q 542 651 499 694 q 585 528 585 607 l 585 167 q 542 44 585 88 q 418 0 499 0 l 351 0 l 196 31 l 196 -319 l 99 -319 l 99 581 m 371 604 l 196 507 l 196 119 l 354 89 l 415 89 q 488 164 488 89 l 488 529 q 415 604 488 604 l 371 604 z "},"q":{"ha":665,"x_min":85,"x_max":571,"o":"m 297 89 l 474 189 l 474 600 l 254 618 q 182 543 182 618 l 182 164 q 254 89 182 89 l 297 89 m 251 708 l 571 678 l 571 -319 l 474 -319 l 474 86 l 321 0 l 251 0 q 127 43 169 0 q 85 167 85 86 l 85 542 q 127 665 85 621 q 251 708 169 708 z "},"r":{"ha":451,"x_min":85,"x_max":418,"o":"m 418 694 l 418 592 l 371 594 l 196 518 l 196 0 l 99 0 l 99 579 l 85 692 l 175 704 l 190 604 l 349 694 l 418 694 z "},"s":{"ha":553,"x_min":51,"x_max":492,"o":"m 347 604 l 233 604 q 176 585 194 604 q 158 519 158 567 q 162 497 158 507 q 176 476 165 486 q 191 461 186 465 q 422 311 196 457 q 492 171 492 267 q 319 0 492 0 l 190 0 l 51 38 l 76 122 l 190 89 l 322 89 q 394 164 394 89 q 388 219 394 207 q 357 246 381 231 l 156 378 q 82 443 103 413 q 61 524 61 474 q 103 650 61 606 q 228 694 146 694 l 347 694 l 485 656 l 461 571 l 347 604 z "},"t":{"ha":460,"x_min":17,"x_max":433,"o":"m 314 -4 q 173 43 207 0 q 139 211 139 86 l 139 603 l 17 603 l 17 681 l 139 694 l 139 758 l 129 836 l 222 865 l 236 754 l 236 694 l 422 694 l 422 603 l 236 603 l 236 164 q 249 99 236 113 q 306 86 263 86 l 410 114 l 433 29 l 314 -4 z "},"u":{"ha":683,"x_min":85,"x_max":599,"o":"m 99 582 l 85 692 l 179 704 l 196 576 l 196 164 q 268 89 196 89 l 308 89 l 488 206 l 488 694 l 585 694 l 585 110 l 599 0 l 504 -11 l 489 99 l 333 0 l 265 0 q 141 43 183 0 q 99 167 99 86 l 99 582 z "},"v":{"ha":578,"x_min":22,"x_max":535,"o":"m 521 582 l 336 0 l 242 0 l 22 694 l 119 694 l 251 264 l 286 117 l 292 117 l 325 264 q 426 593 392 483 l 440 704 l 535 692 l 521 582 z "},"w":{"ha":861,"x_min":22,"x_max":822,"o":"m 467 381 l 433 556 l 428 556 l 394 381 l 308 0 l 207 0 l 22 694 l 119 694 l 226 264 l 253 117 l 258 117 l 283 264 l 389 694 l 472 694 l 578 264 l 604 117 l 610 117 l 635 264 l 717 593 l 729 704 l 822 692 l 808 582 l 654 0 l 553 0 l 467 381 z "},"x":{"ha":596,"x_min":22,"x_max":574,"o":"m 300 424 l 394 599 l 433 710 l 538 694 l 490 583 l 368 364 l 574 0 l 468 0 l 301 306 l 296 306 l 128 0 l 22 0 l 228 364 l 44 694 l 151 694 l 294 424 l 300 424 z "},"y":{"ha":683,"x_min":85,"x_max":585,"o":"m 488 -132 l 488 97 l 333 0 l 265 0 q 141 43 183 0 q 99 167 99 86 l 99 582 l 85 692 l 179 704 l 196 576 l 196 164 q 268 89 196 89 l 308 89 l 488 206 l 488 694 l 585 694 l 585 -132 q 393 -319 585 -319 l 257 -319 l 118 -282 l 143 -197 l 257 -231 l 403 -231 q 468 -207 449 -231 q 488 -132 488 -183 z "},"z":{"ha":600,"x_min":49,"x_max":564,"o":"m 171 603 l 60 583 l 49 679 l 171 694 l 543 694 l 543 603 l 171 92 l 442 92 l 553 111 l 564 15 l 442 0 l 57 0 l 57 92 l 428 603 l 171 603 z "},"{":{"ha":439,"x_min":29,"x_max":403,"o":"m 29 379 l 29 463 q 133 565 133 463 l 133 925 q 176 1048 133 1004 q 300 1092 218 1092 l 403 1092 l 403 1008 l 325 1008 q 245 992 271 1008 q 219 926 219 975 l 219 544 q 203 469 219 504 q 156 424 188 433 l 139 424 l 139 418 l 156 418 q 203 374 188 408 q 219 297 219 339 l 219 -156 q 245 -221 219 -204 q 325 -237 271 -237 l 403 -237 l 403 -319 l 322 -319 q 177 -274 221 -319 q 133 -126 133 -229 l 133 250 q 112 350 133 321 q 29 379 90 379 z "},"|":{"ha":311,"x_min":114,"x_max":197,"o":"m 114 -319 l 114 1092 l 197 1092 l 197 -319 l 114 -319 z "},"}":{"ha":439,"x_min":36,"x_max":410,"o":"m 410 463 l 410 379 q 331 355 357 379 q 306 276 306 331 l 306 -153 q 263 -276 306 -232 q 139 -319 219 -319 l 36 -319 l 36 -237 l 114 -237 q 193 -221 168 -237 q 218 -156 218 -204 l 218 297 q 234 373 218 338 q 283 418 250 408 l 300 418 l 300 424 l 283 424 q 235 469 251 433 q 218 544 218 504 l 218 926 q 193 992 218 975 q 114 1008 168 1008 l 36 1008 l 36 1092 l 115 1092 q 258 1052 210 1092 q 306 925 306 1013 l 306 565 q 410 463 306 463 z "},"~":{"ha":625,"x_min":61,"x_max":564,"o":"m 76 504 l 76 518 q 103 584 76 557 q 168 611 131 611 l 207 611 q 279 588 243 611 l 392 521 q 410 515 403 515 l 444 515 q 469 539 469 515 l 469 549 l 489 622 l 564 600 l 549 539 l 549 526 q 522 460 549 486 q 457 433 494 433 l 418 433 q 346 456 382 433 l 233 522 q 214 529 222 529 l 179 529 q 156 506 156 529 l 156 496 l 136 422 l 61 443 l 76 504 z "}," ":{"ha":317,"x_min":0,"x_max":0,"o":"z "},"¡":{"ha":258,"x_min":65,"x_max":196,"o":"m 167 468 l 181 -101 l 181 -337 l 83 -337 l 83 -100 l 94 468 l 167 468 m 118 715 l 143 715 q 181 701 167 715 q 196 663 196 686 l 196 638 q 181 599 196 614 q 143 585 167 585 l 118 585 q 80 599 94 585 q 65 638 65 614 l 65 663 q 80 701 65 686 q 118 715 94 715 z "},"¢":{"ha":561,"x_min":85,"x_max":549,"o":"m 251 639 l 279 639 l 279 722 l 356 722 l 356 639 l 404 639 l 542 600 l 518 515 l 404 549 l 254 549 q 182 474 182 549 l 182 219 q 254 144 182 144 l 411 144 l 525 178 l 549 93 l 411 56 l 356 56 l 356 -28 l 279 -28 l 279 56 l 251 56 q 127 99 169 56 q 85 222 85 142 l 85 472 q 127 595 85 551 q 251 639 169 639 z "},"£":{"ha":778,"x_min":26,"x_max":693,"o":"m 554 0 l 119 0 l 119 428 l 26 428 l 26 513 l 119 513 l 119 806 q 162 928 119 885 q 286 972 204 972 l 454 972 l 592 933 l 568 849 l 454 882 l 289 882 q 217 807 217 882 l 217 513 l 469 513 l 469 428 l 217 428 l 217 89 l 554 89 l 668 122 l 693 38 l 554 0 z "},"¤":{"ha":697,"x_min":82,"x_max":613,"o":"m 146 140 l 88 199 l 140 251 q 121 347 121 293 l 121 597 q 138 688 121 653 l 82 744 l 140 803 l 196 747 q 290 768 233 768 l 406 768 q 499 747 461 768 l 554 804 l 613 746 l 556 688 q 574 597 574 649 l 574 347 q 554 253 574 292 l 608 199 l 550 140 l 496 193 q 406 175 456 175 l 290 175 q 199 193 239 175 l 146 140 m 406 692 l 290 692 q 204 604 204 692 l 204 340 q 290 251 204 251 l 406 251 q 490 340 490 251 l 490 604 q 406 692 490 692 z "},"¥":{"ha":690,"x_min":32,"x_max":657,"o":"m 558 972 l 657 972 l 415 449 l 560 449 l 560 371 l 393 371 l 393 294 l 560 294 l 560 218 l 393 218 l 393 0 l 296 0 l 296 218 l 129 218 l 129 294 l 296 294 l 296 371 l 129 371 l 129 449 l 274 449 l 32 972 l 131 972 l 343 493 l 349 493 l 558 972 z "},"¦":{"ha":311,"x_min":114,"x_max":197,"o":"m 114 431 l 114 972 l 197 972 l 197 431 l 114 431 m 114 -319 l 114 222 l 197 222 l 197 -319 l 114 -319 z "},"§":{"ha":576,"x_min":49,"x_max":519,"o":"m 519 378 l 519 310 q 440 172 519 210 q 504 94 489 135 q 519 -28 519 53 q 474 -155 519 -108 q 346 -201 428 -201 l 199 -201 l 60 -164 l 85 -79 l 199 -112 l 343 -112 q 401 -91 379 -112 q 422 -31 422 -69 l 422 13 q 389 97 422 78 l 171 224 q 75 305 97 267 q 53 422 53 343 l 53 460 q 140 600 53 567 q 53 815 49 656 q 101 942 56 894 q 226 989 146 989 l 374 989 l 513 950 l 488 865 l 374 899 l 229 899 q 172 878 193 899 q 150 817 150 857 l 150 764 q 196 681 150 707 l 401 563 q 495 486 471 522 q 519 378 519 450 m 190 322 l 361 224 q 422 308 422 239 q 411 423 422 388 q 363 478 400 458 l 233 549 q 150 461 150 539 l 150 431 q 190 322 150 344 z "},"¨":{"ha":556,"x_min":104,"x_max":460,"o":"m 179 1129 l 156 1129 q 119 1144 133 1129 q 104 1181 104 1158 l 104 1204 q 119 1242 104 1228 q 156 1256 133 1256 l 179 1256 q 217 1242 203 1256 q 231 1204 231 1228 l 231 1181 q 217 1144 231 1158 q 179 1129 203 1129 m 408 1129 l 385 1129 q 347 1144 361 1129 q 333 1181 333 1158 l 333 1204 q 347 1242 333 1228 q 385 1256 361 1256 l 408 1256 q 445 1242 431 1256 q 460 1204 460 1228 l 460 1181 q 445 1144 460 1158 q 408 1129 431 1129 z "},"©":{"ha":910,"x_min":71,"x_max":839,"o":"m 669 882 l 240 882 q 168 807 168 882 l 168 164 q 240 89 168 89 l 669 89 q 742 164 742 89 l 742 807 q 669 882 742 882 m 672 0 l 238 0 q 113 43 156 0 q 71 167 71 86 l 71 806 q 113 928 71 885 q 238 972 156 972 l 672 972 q 796 928 753 972 q 839 806 839 885 l 839 167 q 796 44 839 88 q 672 0 753 0 m 400 811 l 521 811 l 658 774 l 635 696 l 521 729 l 403 729 q 324 647 324 729 l 324 324 q 403 242 324 242 l 536 242 l 650 275 l 675 197 l 536 158 l 400 158 q 276 202 319 158 q 233 325 233 246 l 233 644 q 276 767 233 724 q 400 811 319 811 z "},"ª":{"ha":535,"x_min":82,"x_max":457,"o":"m 97 1013 l 200 1042 l 321 1042 q 414 1009 382 1042 q 446 917 446 976 l 446 611 l 457 522 l 385 514 l 376 611 l 257 522 l 207 522 q 114 555 146 522 q 82 647 82 588 l 82 710 q 114 802 82 769 q 207 835 146 835 l 367 835 l 367 918 q 319 968 367 968 l 200 968 l 115 943 l 97 1013 m 208 594 l 239 594 l 367 686 l 367 765 l 208 765 q 160 714 160 765 l 160 644 q 208 594 160 594 z "},"«":{"ha":854,"x_min":74,"x_max":792,"o":"m 201 401 l 461 154 l 411 97 l 74 378 l 74 429 l 410 710 l 460 653 l 201 406 l 201 401 m 532 401 l 792 154 l 742 97 l 404 378 l 404 429 l 740 710 l 790 653 l 532 406 l 532 401 z "},"¬":{"ha":642,"x_min":106,"x_max":536,"o":"m 446 318 l 106 318 l 106 403 l 536 403 l 536 158 l 446 158 l 446 318 z "},"­":{"ha":642,"x_min":106,"x_max":536,"o":"m 536 339 l 106 339 l 106 424 l 536 424 l 536 339 z "},"®":{"ha":910,"x_min":71,"x_max":839,"o":"m 672 0 l 238 0 q 113 43 156 0 q 71 167 71 86 l 71 806 q 113 928 71 885 q 238 972 156 972 l 672 972 q 796 928 753 972 q 839 806 839 885 l 839 167 q 796 44 839 88 q 672 0 753 0 m 669 882 l 240 882 q 168 807 168 882 l 168 164 q 197 103 168 118 q 279 89 225 89 l 669 89 q 742 164 742 89 l 742 807 q 669 882 742 882 m 251 811 l 517 811 q 669 658 669 811 l 669 569 q 506 417 669 417 l 661 158 l 558 158 l 411 417 l 342 417 l 342 160 l 251 160 l 251 811 m 342 729 l 342 499 l 507 499 q 563 516 547 499 q 579 574 579 533 l 579 647 q 561 712 579 694 q 493 729 543 729 l 342 729 z "},"¯":{"ha":558,"x_min":133,"x_max":425,"o":"m 425 1125 l 133 1125 l 133 1193 l 425 1193 l 425 1125 z "},"°":{"ha":517,"x_min":85,"x_max":432,"o":"m 354 743 l 354 843 q 351 891 354 875 q 332 921 349 907 q 283 935 315 935 l 244 935 q 163 869 163 935 l 163 768 q 165 720 163 736 q 184 692 168 704 q 232 679 200 679 l 272 679 q 354 743 354 679 m 296 607 l 240 607 q 85 743 85 607 l 85 869 q 119 970 85 935 q 221 1006 154 1006 l 296 1006 q 397 970 363 1006 q 432 869 432 935 l 432 743 q 397 643 432 679 q 296 607 361 607 z "},"±":{"ha":640,"x_min":106,"x_max":535,"o":"m 106 394 l 106 479 l 278 479 l 278 651 l 363 651 l 363 479 l 535 479 l 535 394 l 363 394 l 363 222 l 278 222 l 278 394 l 106 394 m 535 49 l 106 49 l 106 133 l 535 133 l 535 49 z "},"²":{"ha":414,"x_min":40,"x_max":350,"o":"m 132 1042 l 249 1042 q 319 1016 294 1042 q 344 944 344 990 l 344 860 q 306 779 344 813 l 144 644 q 122 592 122 626 l 350 592 l 350 521 l 40 521 l 40 601 q 49 647 40 629 q 83 685 58 664 l 243 821 q 263 842 258 833 q 267 867 267 850 l 267 931 q 226 971 267 971 l 132 971 l 63 953 l 43 1021 l 132 1042 z "},"³":{"ha":425,"x_min":36,"x_max":347,"o":"m 193 833 l 246 833 q 321 808 294 833 q 347 738 347 783 l 347 617 q 322 547 347 572 q 251 521 297 521 l 111 521 l 36 540 l 50 607 l 111 592 l 231 592 q 269 632 269 592 l 269 722 q 231 761 269 761 l 100 761 l 100 833 l 236 972 l 236 978 l 161 969 l 38 969 l 38 1042 l 333 1042 l 333 969 l 193 833 z "},"´":{"ha":401,"x_min":71,"x_max":314,"o":"m 71 1081 l 250 1271 q 314 1196 307 1250 l 110 1042 l 71 1081 z "},"µ":{"ha":669,"x_min":78,"x_max":592,"o":"m 92 582 l 78 692 l 172 704 l 189 576 l 189 164 q 261 89 189 89 l 301 89 l 481 206 l 481 694 l 578 694 l 578 110 l 592 0 l 497 -11 l 482 99 l 326 0 l 258 0 q 172 29 197 0 l 189 -115 l 189 -319 l 92 -319 l 92 582 z "},"¶":{"ha":654,"x_min":8,"x_max":576,"o":"m 576 972 l 576 -319 l 479 -319 l 479 882 l 342 882 l 342 -319 l 244 -319 l 244 563 l 161 563 q 48 603 88 563 q 8 715 8 643 l 8 819 q 48 932 8 892 q 161 972 88 972 l 576 972 z "},"·":{"ha":344,"x_min":128,"x_max":258,"o":"m 206 431 l 181 431 q 143 446 158 431 q 128 483 128 461 l 128 508 q 142 547 128 532 q 181 561 157 561 l 206 561 q 244 547 229 561 q 258 508 258 532 l 258 483 q 244 445 258 460 q 206 431 229 431 z "},"¸":{"ha":422,"x_min":39,"x_max":351,"o":"m 54 -219 l 124 -236 l 242 -236 q 272 -201 272 -236 l 272 -168 q 242 -132 272 -132 l 201 -132 q 142 -150 163 -132 l 71 -133 l 115 0 l 194 0 l 183 -32 l 151 -69 l 156 -74 q 203 -58 179 -58 l 232 -58 q 351 -168 351 -58 l 351 -187 q 324 -282 351 -253 q 231 -311 297 -311 l 124 -311 l 39 -292 l 54 -219 z "},"¹":{"ha":318,"x_min":8,"x_max":303,"o":"m 303 588 l 303 521 l 8 521 l 8 588 l 121 588 l 121 969 l 39 931 l 10 985 l 121 1042 l 199 1042 l 199 588 l 303 588 z "},"º":{"ha":579,"x_min":108,"x_max":472,"o":"m 346 968 l 236 968 q 186 918 186 968 l 186 643 q 236 593 186 593 l 346 593 q 394 643 394 593 l 394 918 q 346 968 394 968 m 349 521 l 233 521 q 140 553 172 521 q 108 646 108 586 l 108 917 q 140 1009 108 976 q 233 1042 172 1042 l 349 1042 q 440 1008 408 1042 q 472 917 472 975 l 472 646 q 440 553 472 586 q 349 521 408 521 z "},"»":{"ha":854,"x_min":79,"x_max":797,"o":"m 410 154 l 669 401 l 669 406 l 411 653 l 461 710 l 797 429 l 797 378 l 460 97 l 410 154 m 79 154 l 339 401 l 339 406 l 81 653 l 131 710 l 467 429 l 467 378 l 129 97 l 79 154 z "},"¼":{"ha":1040,"x_min":72,"x_max":951,"o":"m 367 282 l 367 215 l 72 215 l 72 282 l 185 282 l 185 664 l 103 625 l 74 679 l 185 736 l 263 736 l 263 282 l 367 282 m 392 -29 l 325 -8 l 624 771 l 690 750 l 392 -29 m 896 529 l 896 175 l 951 175 l 951 104 l 896 104 l 896 8 l 821 8 l 821 104 l 594 104 l 594 175 l 821 529 l 896 529 m 679 175 l 821 175 l 821 403 l 679 175 z "},"½":{"ha":1040,"x_min":71,"x_max":960,"o":"m 365 282 l 365 215 l 71 215 l 71 282 l 183 282 l 183 664 l 101 625 l 72 679 l 183 736 l 261 736 l 261 282 l 365 282 m 392 -29 l 325 -8 l 624 771 l 690 750 l 392 -29 m 742 522 l 858 522 q 929 497 904 522 q 954 425 954 471 l 954 340 q 915 260 954 293 l 754 125 q 732 72 732 107 l 960 72 l 960 1 l 650 1 l 650 82 q 659 127 650 110 q 693 165 668 144 l 853 301 q 872 322 868 314 q 876 347 876 331 l 876 411 q 836 451 876 451 l 742 451 l 672 433 l 653 501 l 742 522 z "},"¾":{"ha":1040,"x_min":65,"x_max":950,"o":"m 222 532 l 275 532 q 350 507 324 532 q 376 436 376 482 l 376 315 q 351 245 376 271 q 281 219 326 219 l 140 219 l 65 239 l 79 306 l 140 290 l 260 290 q 299 331 299 290 l 299 421 q 260 460 299 460 l 129 460 l 129 532 l 265 671 l 265 676 l 190 668 l 67 668 l 67 740 l 363 740 l 363 668 l 222 532 m 397 -29 l 331 -8 l 629 771 l 696 750 l 397 -29 m 894 522 l 894 168 l 950 168 l 950 97 l 894 97 l 894 1 l 819 1 l 819 97 l 593 97 l 593 168 l 819 522 l 894 522 m 678 168 l 819 168 l 819 396 l 678 168 z "},"¿":{"ha":618,"x_min":53,"x_max":565,"o":"m 150 -65 l 150 -182 q 222 -257 150 -257 l 444 -257 l 540 -228 l 565 -314 l 444 -347 l 219 -347 q 96 -303 139 -347 q 53 -181 53 -260 l 53 -61 q 67 41 53 3 q 118 110 81 79 l 231 197 q 270 241 261 221 q 279 300 279 261 l 279 396 l 376 396 l 376 300 q 301 140 376 196 l 190 58 q 156 15 163 38 q 150 -65 150 -8 m 313 633 l 338 633 q 376 619 361 633 q 390 581 390 604 l 390 556 q 376 517 390 532 q 338 503 361 503 l 313 503 q 274 517 289 503 q 260 556 260 532 l 260 581 q 274 618 260 603 q 313 633 289 633 z "},"À":{"ha":768,"x_min":36,"x_max":732,"o":"m 536 388 l 407 882 l 363 882 l 232 388 l 536 388 m 210 299 l 132 0 l 36 0 l 290 972 l 478 972 l 732 0 l 636 0 l 557 299 l 210 299 m 453 1110 l 431 1057 l 182 1119 q 178 1146 178 1133 q 214 1215 178 1186 l 453 1110 z "},"Á":{"ha":768,"x_min":36,"x_max":732,"o":"m 536 388 l 407 882 l 363 882 l 232 388 l 536 388 m 210 299 l 132 0 l 36 0 l 290 972 l 478 972 l 732 0 l 636 0 l 557 299 l 210 299 m 560 1215 q 596 1146 596 1186 q 592 1119 596 1133 l 343 1057 l 321 1110 l 560 1215 z "},"Â":{"ha":768,"x_min":36,"x_max":732,"o":"m 536 388 l 407 882 l 363 882 l 232 388 l 536 388 m 210 299 l 132 0 l 36 0 l 290 972 l 478 972 l 732 0 l 636 0 l 557 299 l 210 299 m 428 1244 l 582 1075 l 540 1042 l 389 1160 l 383 1160 l 232 1042 l 190 1075 l 346 1244 q 428 1244 383 1256 z "},"Ã":{"ha":768,"x_min":36,"x_max":732,"o":"m 536 388 l 407 882 l 363 882 l 232 388 l 536 388 m 210 299 l 132 0 l 36 0 l 290 972 l 478 972 l 732 0 l 636 0 l 557 299 l 210 299 m 483 1074 l 457 1074 q 392 1096 424 1074 l 333 1139 q 299 1150 319 1150 l 286 1150 q 259 1145 267 1150 q 251 1124 251 1140 l 251 1108 l 238 1063 l 174 1093 l 182 1128 l 182 1150 q 206 1213 182 1196 q 276 1231 229 1231 l 307 1231 q 368 1211 339 1231 q 385 1198 374 1207 q 402 1185 397 1189 q 416 1176 407 1182 q 429 1167 425 1169 q 440 1160 433 1164 q 451 1156 446 1157 q 460 1154 456 1154 l 474 1154 q 501 1159 493 1154 q 508 1181 508 1164 l 508 1196 l 522 1242 l 590 1222 l 578 1176 l 578 1154 q 554 1091 578 1108 q 483 1074 531 1074 z "},"Ä":{"ha":768,"x_min":36,"x_max":732,"o":"m 536 388 l 407 882 l 363 882 l 232 388 l 536 388 m 210 299 l 132 0 l 36 0 l 290 972 l 478 972 l 732 0 l 636 0 l 557 299 l 210 299 m 283 1100 l 260 1100 q 223 1115 238 1100 q 208 1151 208 1129 l 208 1175 q 223 1213 208 1199 q 260 1226 238 1226 l 283 1226 q 321 1213 307 1226 q 335 1175 335 1199 l 335 1151 q 321 1115 335 1129 q 283 1100 307 1100 m 513 1100 l 489 1100 q 451 1115 465 1100 q 438 1151 438 1129 l 438 1175 q 451 1213 438 1199 q 489 1226 465 1226 l 513 1226 q 549 1213 535 1226 q 564 1175 564 1199 l 564 1151 q 549 1115 564 1129 q 513 1100 535 1100 z "},"Å":{"ha":768,"x_min":36,"x_max":732,"o":"m 536 388 l 407 882 l 363 882 l 232 388 l 536 388 m 210 299 l 132 0 l 36 0 l 290 972 l 478 972 l 732 0 l 636 0 l 557 299 l 210 299 m 371 1104 l 401 1104 q 458 1160 458 1104 l 458 1168 q 446 1209 458 1196 q 401 1222 433 1222 l 371 1222 q 326 1209 339 1222 q 314 1168 314 1196 l 314 1160 q 371 1104 314 1104 m 417 1047 l 356 1047 q 275 1077 304 1047 q 246 1157 246 1107 l 246 1172 q 275 1253 246 1224 q 356 1282 304 1282 l 417 1282 q 497 1253 468 1282 q 526 1172 526 1224 l 526 1157 q 497 1077 526 1107 q 417 1047 467 1047 z "},"Æ":{"ha":1082,"x_min":36,"x_max":1032,"o":"m 290 972 l 1004 972 l 1004 882 l 617 882 l 617 554 l 935 554 l 935 464 l 617 464 l 617 89 l 1032 89 l 1032 0 l 519 0 l 519 299 l 210 299 l 132 0 l 36 0 l 290 972 m 363 882 l 232 388 l 519 388 l 519 882 l 363 882 z "},"Ç":{"ha":701,"x_min":99,"x_max":651,"o":"m 265 -219 l 335 -236 l 453 -236 q 483 -201 483 -236 l 483 -168 q 453 -132 483 -132 l 413 -132 q 353 -150 374 -132 l 282 -133 l 326 0 l 265 0 q 141 43 183 0 q 99 167 99 86 l 99 806 q 141 928 99 885 q 265 972 183 972 l 497 972 l 636 933 l 611 849 l 497 882 l 268 882 q 196 807 196 882 l 196 164 q 268 89 196 89 l 514 89 l 628 122 l 651 38 l 514 0 l 406 0 l 394 -32 l 363 -69 l 367 -74 q 414 -58 390 -58 l 443 -58 q 563 -168 563 -58 l 563 -187 q 535 -282 563 -253 q 442 -311 508 -311 l 335 -311 l 250 -292 l 265 -219 z "},"È":{"ha":675,"x_min":113,"x_max":625,"o":"m 113 972 l 597 972 l 597 882 l 210 882 l 210 554 l 528 554 l 528 464 l 210 464 l 210 89 l 625 89 l 625 0 l 113 0 l 113 972 m 422 1110 l 400 1057 l 151 1119 q 147 1146 147 1133 q 183 1215 147 1186 l 422 1110 z "},"É":{"ha":675,"x_min":113,"x_max":625,"o":"m 113 972 l 597 972 l 597 882 l 210 882 l 210 554 l 528 554 l 528 464 l 210 464 l 210 89 l 625 89 l 625 0 l 113 0 l 113 972 m 529 1215 q 565 1146 565 1186 q 561 1119 565 1133 l 313 1057 l 290 1110 l 529 1215 z "},"Ê":{"ha":675,"x_min":113,"x_max":625,"o":"m 113 972 l 597 972 l 597 882 l 210 882 l 210 554 l 528 554 l 528 464 l 210 464 l 210 89 l 625 89 l 625 0 l 113 0 l 113 972 m 397 1244 l 551 1075 l 510 1042 l 358 1160 l 353 1160 l 201 1042 l 160 1075 l 315 1244 q 397 1244 353 1256 z "},"Ë":{"ha":675,"x_min":113,"x_max":625,"o":"m 113 972 l 597 972 l 597 882 l 210 882 l 210 554 l 528 554 l 528 464 l 210 464 l 210 89 l 625 89 l 625 0 l 113 0 l 113 972 m 253 1100 l 229 1100 q 192 1115 207 1100 q 178 1151 178 1129 l 178 1175 q 192 1213 178 1199 q 229 1226 207 1226 l 253 1226 q 290 1213 276 1226 q 304 1175 304 1199 l 304 1151 q 290 1115 304 1129 q 253 1100 276 1100 m 482 1100 l 458 1100 q 421 1115 435 1100 q 407 1151 407 1129 l 407 1175 q 421 1213 407 1199 q 458 1226 435 1226 l 482 1226 q 519 1213 504 1226 q 533 1175 533 1199 l 533 1151 q 519 1115 533 1129 q 482 1100 504 1100 z "},"Ì":{"ha":322,"x_min":-46,"x_max":229,"o":"m 210 0 l 113 0 l 113 972 l 210 972 l 210 0 m 229 1110 l 207 1057 l -42 1119 q -46 1146 -46 1133 q -10 1215 -46 1186 l 229 1110 z "},"Í":{"ha":322,"x_min":96,"x_max":371,"o":"m 210 0 l 113 0 l 113 972 l 210 972 l 210 0 m 335 1215 q 371 1146 371 1186 q 367 1119 371 1133 l 118 1057 l 96 1110 l 335 1215 z "},"Î":{"ha":322,"x_min":-33,"x_max":358,"o":"m 210 0 l 113 0 l 113 972 l 210 972 l 210 0 m 204 1244 l 358 1075 l 317 1042 l 165 1160 l 160 1160 l 8 1042 l -33 1075 l 122 1244 q 204 1244 160 1256 z "},"Ï":{"ha":322,"x_min":-15,"x_max":340,"o":"m 210 0 l 113 0 l 113 972 l 210 972 l 210 0 m 60 1100 l 36 1100 q -1 1115 14 1100 q -15 1151 -15 1129 l -15 1175 q -1 1213 -15 1199 q 36 1226 14 1226 l 60 1226 q 97 1213 83 1226 q 111 1175 111 1199 l 111 1151 q 97 1115 111 1129 q 60 1100 83 1100 m 289 1100 l 265 1100 q 228 1115 242 1100 q 214 1151 214 1129 l 214 1175 q 228 1213 214 1199 q 265 1226 242 1226 l 289 1226 q 326 1213 311 1226 q 340 1175 340 1199 l 340 1151 q 326 1115 340 1129 q 289 1100 311 1100 z "},"Ð":{"ha":788,"x_min":29,"x_max":689,"o":"m 113 972 l 522 972 q 647 928 604 972 q 689 806 689 885 l 689 167 q 647 43 689 86 q 522 0 604 0 l 113 0 l 113 453 l 29 453 l 29 542 l 113 542 l 113 972 m 415 542 l 415 453 l 210 453 l 210 89 l 519 89 q 592 164 592 89 l 592 807 q 519 882 592 882 l 210 882 l 210 542 l 415 542 z "},"Ñ":{"ha":806,"x_min":113,"x_max":693,"o":"m 596 0 l 257 678 l 199 817 l 193 817 l 210 557 l 210 0 l 113 0 l 113 972 l 210 972 l 547 293 l 606 154 l 611 154 l 596 414 l 596 972 l 693 972 l 693 0 l 596 0 m 501 1074 l 475 1074 q 410 1096 442 1074 l 351 1139 q 317 1150 338 1150 l 304 1150 q 277 1145 285 1150 q 269 1124 269 1140 l 269 1108 l 256 1063 l 192 1093 l 200 1128 l 200 1150 q 224 1213 200 1196 q 294 1231 247 1231 l 325 1231 q 386 1211 357 1231 q 403 1198 392 1207 q 420 1185 415 1189 q 434 1176 425 1182 q 447 1167 443 1169 q 458 1160 451 1164 q 469 1156 464 1157 q 478 1154 474 1154 l 492 1154 q 519 1159 511 1154 q 526 1181 526 1164 l 526 1196 l 540 1242 l 608 1222 l 596 1176 l 596 1154 q 572 1091 596 1108 q 501 1074 549 1074 z "},"Ò":{"ha":778,"x_min":99,"x_max":679,"o":"m 510 882 l 268 882 q 196 807 196 882 l 196 164 q 268 89 196 89 l 510 89 q 582 164 582 89 l 582 807 q 510 882 582 882 m 513 0 l 265 0 q 141 43 183 0 q 99 167 99 86 l 99 806 q 141 928 99 885 q 265 972 183 972 l 513 972 q 636 928 593 972 q 679 806 679 885 l 679 167 q 636 44 679 88 q 513 0 593 0 m 456 1110 l 433 1057 l 185 1119 q 181 1146 181 1133 q 217 1215 181 1186 l 456 1110 z "},"Ó":{"ha":778,"x_min":99,"x_max":679,"o":"m 510 882 l 268 882 q 196 807 196 882 l 196 164 q 268 89 196 89 l 510 89 q 582 164 582 89 l 582 807 q 510 882 582 882 m 513 0 l 265 0 q 141 43 183 0 q 99 167 99 86 l 99 806 q 141 928 99 885 q 265 972 183 972 l 513 972 q 636 928 593 972 q 679 806 679 885 l 679 167 q 636 44 679 88 q 513 0 593 0 m 563 1215 q 599 1146 599 1186 q 594 1119 599 1133 l 346 1057 l 324 1110 l 563 1215 z "},"Ô":{"ha":778,"x_min":99,"x_max":679,"o":"m 510 882 l 268 882 q 196 807 196 882 l 196 164 q 268 89 196 89 l 510 89 q 582 164 582 89 l 582 807 q 510 882 582 882 m 513 0 l 265 0 q 141 43 183 0 q 99 167 99 86 l 99 806 q 141 928 99 885 q 265 972 183 972 l 513 972 q 636 928 593 972 q 679 806 679 885 l 679 167 q 636 44 679 88 q 513 0 593 0 m 431 1244 l 585 1075 l 543 1042 l 392 1160 l 386 1160 l 235 1042 l 193 1075 l 349 1244 q 431 1244 386 1256 z "},"Õ":{"ha":778,"x_min":99,"x_max":679,"o":"m 510 882 l 268 882 q 196 807 196 882 l 196 164 q 268 89 196 89 l 510 89 q 582 164 582 89 l 582 807 q 510 882 582 882 m 513 0 l 265 0 q 141 43 183 0 q 99 167 99 86 l 99 806 q 141 928 99 885 q 265 972 183 972 l 513 972 q 636 928 593 972 q 679 806 679 885 l 679 167 q 636 44 679 88 q 513 0 593 0 m 486 1074 l 460 1074 q 394 1096 426 1074 l 336 1139 q 301 1150 322 1150 l 289 1150 q 262 1145 269 1150 q 254 1124 254 1140 l 254 1108 l 240 1063 l 176 1093 l 185 1128 l 185 1150 q 208 1213 185 1196 q 279 1231 232 1231 l 310 1231 q 371 1211 342 1231 q 388 1198 376 1207 q 405 1185 400 1189 q 419 1176 410 1182 q 432 1167 428 1169 q 442 1160 436 1164 q 453 1156 449 1157 q 463 1154 458 1154 l 476 1154 q 503 1159 496 1154 q 511 1181 511 1164 l 511 1196 l 525 1242 l 593 1222 l 581 1176 l 581 1154 q 557 1091 581 1108 q 486 1074 533 1074 z "},"Ö":{"ha":778,"x_min":99,"x_max":679,"o":"m 510 882 l 268 882 q 196 807 196 882 l 196 164 q 268 89 196 89 l 510 89 q 582 164 582 89 l 582 807 q 510 882 582 882 m 513 0 l 265 0 q 141 43 183 0 q 99 167 99 86 l 99 806 q 141 928 99 885 q 265 972 183 972 l 513 972 q 636 928 593 972 q 679 806 679 885 l 679 167 q 636 44 679 88 q 513 0 593 0 m 286 1100 l 263 1100 q 226 1115 240 1100 q 211 1151 211 1129 l 211 1175 q 226 1213 211 1199 q 263 1226 240 1226 l 286 1226 q 324 1213 310 1226 q 338 1175 338 1199 l 338 1151 q 324 1115 338 1129 q 286 1100 310 1100 m 515 1100 l 492 1100 q 454 1115 468 1100 q 440 1151 440 1129 l 440 1175 q 454 1213 440 1199 q 492 1226 468 1226 l 515 1226 q 552 1213 538 1226 q 567 1175 567 1199 l 567 1151 q 552 1115 567 1129 q 515 1100 538 1100 z "},"×":{"ha":640,"x_min":85,"x_max":556,"o":"m 319 321 l 140 142 l 85 196 l 265 376 l 85 557 l 140 611 l 319 431 l 501 611 l 556 557 l 375 376 l 556 194 l 501 140 l 319 321 z "},"Ø":{"ha":778,"x_min":79,"x_max":681,"o":"m 681 1000 l 643 919 q 679 806 679 876 l 679 167 q 636 44 679 88 q 513 0 593 0 l 265 0 q 197 10 225 0 l 142 -108 l 79 -75 l 138 46 q 99 167 99 89 l 99 806 q 141 928 99 885 q 265 972 183 972 l 513 972 q 585 961 551 972 l 618 1032 l 681 1000 m 510 882 l 268 882 q 196 807 196 882 l 196 164 q 197 142 196 149 l 532 879 q 510 882 518 882 m 582 807 l 582 818 l 249 90 q 268 89 254 89 l 510 89 q 582 164 582 89 l 582 807 z "},"Ù":{"ha":810,"x_min":113,"x_max":697,"o":"m 600 972 l 697 972 l 697 167 q 655 43 697 86 q 531 0 613 0 l 279 0 q 155 43 197 0 q 113 167 113 86 l 113 972 l 210 972 l 210 164 q 282 89 210 89 l 528 89 q 600 164 600 89 l 600 972 m 471 1110 l 449 1057 l 200 1119 q 196 1146 196 1133 q 232 1215 196 1186 l 471 1110 z "},"Ú":{"ha":810,"x_min":113,"x_max":697,"o":"m 600 972 l 697 972 l 697 167 q 655 43 697 86 q 531 0 613 0 l 279 0 q 155 43 197 0 q 113 167 113 86 l 113 972 l 210 972 l 210 164 q 282 89 210 89 l 528 89 q 600 164 600 89 l 600 972 m 578 1215 q 614 1146 614 1186 q 610 1119 614 1133 l 361 1057 l 339 1110 l 578 1215 z "},"Û":{"ha":810,"x_min":113,"x_max":697,"o":"m 600 972 l 697 972 l 697 167 q 655 43 697 86 q 531 0 613 0 l 279 0 q 155 43 197 0 q 113 167 113 86 l 113 972 l 210 972 l 210 164 q 282 89 210 89 l 528 89 q 600 164 600 89 l 600 972 m 446 1244 l 600 1075 l 558 1042 l 407 1160 l 401 1160 l 250 1042 l 208 1075 l 364 1244 q 446 1244 401 1256 z "},"Ü":{"ha":810,"x_min":113,"x_max":697,"o":"m 600 972 l 697 972 l 697 167 q 655 43 697 86 q 531 0 613 0 l 279 0 q 155 43 197 0 q 113 167 113 86 l 113 972 l 210 972 l 210 164 q 282 89 210 89 l 528 89 q 600 164 600 89 l 600 972 m 301 1100 l 278 1100 q 241 1115 256 1100 q 226 1151 226 1129 l 226 1175 q 241 1213 226 1199 q 278 1226 256 1226 l 301 1226 q 339 1213 325 1226 q 353 1175 353 1199 l 353 1151 q 339 1115 353 1129 q 301 1100 325 1100 m 531 1100 l 507 1100 q 469 1115 483 1100 q 456 1151 456 1129 l 456 1175 q 469 1213 456 1199 q 507 1226 483 1226 l 531 1226 q 567 1213 553 1226 q 582 1175 582 1199 l 582 1151 q 567 1115 582 1129 q 531 1100 553 1100 z "},"Ý":{"ha":690,"x_min":32,"x_max":643,"o":"m 606 860 l 393 400 l 393 0 l 296 0 l 296 400 l 32 972 l 131 972 l 343 493 l 349 493 l 517 876 l 544 982 l 643 969 l 606 860 m 518 1215 q 554 1146 554 1186 q 550 1119 554 1133 l 301 1057 l 279 1110 l 518 1215 z "},"Þ":{"ha":722,"x_min":113,"x_max":665,"o":"m 113 972 l 210 972 l 210 847 l 499 847 q 622 803 579 847 q 665 681 665 760 l 665 424 q 622 301 665 344 q 499 257 579 257 l 210 257 l 210 0 l 113 0 l 113 972 m 210 757 l 210 346 l 496 346 q 568 421 568 346 l 568 682 q 496 757 568 757 l 210 757 z "},"ß":{"ha":631,"x_min":92,"x_max":576,"o":"m 189 807 l 189 -201 l 92 -201 l 92 806 q 134 928 92 885 q 258 972 176 972 l 381 972 q 504 928 461 972 q 547 806 547 885 l 547 650 q 478 524 547 547 l 465 524 l 465 518 l 479 518 q 576 381 576 490 l 576 167 q 534 43 576 86 q 410 0 492 0 l 258 0 l 258 89 l 407 89 q 479 164 479 89 l 479 393 q 400 468 479 468 l 258 468 l 258 558 l 371 558 q 450 633 450 558 l 450 807 q 378 882 450 882 l 261 882 q 189 807 189 882 z "},"à":{"ha":653,"x_min":68,"x_max":569,"o":"m 90 656 l 229 694 l 388 694 q 512 651 469 694 q 554 528 554 607 l 554 110 l 569 0 l 474 -11 l 458 113 l 303 0 l 235 0 q 111 44 154 0 q 68 167 68 88 l 68 251 q 111 374 68 331 q 235 418 154 418 l 457 418 l 457 529 q 385 604 457 604 l 229 604 l 115 571 l 90 656 m 238 89 l 278 89 l 457 219 l 457 332 l 238 332 q 165 257 165 332 l 165 164 q 238 89 165 89 m 192 992 l 371 801 l 328 765 l 124 919 q 192 992 132 972 z "},"á":{"ha":653,"x_min":68,"x_max":569,"o":"m 90 656 l 229 694 l 388 694 q 512 651 469 694 q 554 528 554 607 l 554 110 l 569 0 l 474 -11 l 458 113 l 303 0 l 235 0 q 111 44 154 0 q 68 167 68 88 l 68 251 q 111 374 68 331 q 235 418 154 418 l 457 418 l 457 529 q 385 604 457 604 l 229 604 l 115 571 l 90 656 m 238 89 l 278 89 l 457 219 l 457 332 l 238 332 q 165 257 165 332 l 165 164 q 238 89 165 89 m 272 801 l 451 992 q 515 917 508 971 l 311 763 l 272 801 z "},"â":{"ha":653,"x_min":68,"x_max":569,"o":"m 90 656 l 229 694 l 388 694 q 512 651 469 694 q 554 528 554 607 l 554 110 l 569 0 l 474 -11 l 458 113 l 303 0 l 235 0 q 111 44 154 0 q 68 167 68 88 l 68 251 q 111 374 68 331 q 235 418 154 418 l 457 418 l 457 529 q 385 604 457 604 l 229 604 l 115 571 l 90 656 m 238 89 l 278 89 l 457 219 l 457 332 l 238 332 q 165 257 165 332 l 165 164 q 238 89 165 89 m 369 994 l 524 825 l 482 792 l 331 910 l 325 910 l 174 792 l 132 825 l 288 994 q 369 994 325 1006 z "},"ã":{"ha":653,"x_min":68,"x_max":569,"o":"m 90 656 l 229 694 l 388 694 q 512 651 469 694 q 554 528 554 607 l 554 110 l 569 0 l 474 -11 l 458 113 l 303 0 l 235 0 q 111 44 154 0 q 68 167 68 88 l 68 251 q 111 374 68 331 q 235 418 154 418 l 457 418 l 457 529 q 385 604 457 604 l 229 604 l 115 571 l 90 656 m 238 89 l 278 89 l 457 219 l 457 332 l 238 332 q 165 257 165 332 l 165 164 q 238 89 165 89 m 426 824 l 400 824 q 335 846 367 824 l 276 889 q 242 900 263 900 l 229 900 q 202 895 210 900 q 194 874 194 890 l 194 858 l 181 813 l 117 843 l 125 878 l 125 900 q 149 963 125 946 q 219 981 172 981 l 250 981 q 311 961 282 981 q 328 948 317 957 q 345 935 340 939 q 359 926 350 932 q 372 917 368 919 q 383 910 376 914 q 394 906 389 907 q 403 904 399 904 l 417 904 q 444 909 436 904 q 451 931 451 914 l 451 946 l 465 992 l 533 972 l 521 926 l 521 904 q 497 841 521 858 q 426 824 474 824 z "},"ä":{"ha":653,"x_min":68,"x_max":569,"o":"m 90 656 l 229 694 l 388 694 q 512 651 469 694 q 554 528 554 607 l 554 110 l 569 0 l 474 -11 l 458 113 l 303 0 l 235 0 q 111 44 154 0 q 68 167 68 88 l 68 251 q 111 374 68 331 q 235 418 154 418 l 457 418 l 457 529 q 385 604 457 604 l 229 604 l 115 571 l 90 656 m 238 89 l 278 89 l 457 219 l 457 332 l 238 332 q 165 257 165 332 l 165 164 q 238 89 165 89 m 225 850 l 201 850 q 165 865 179 850 q 150 901 150 879 l 150 925 q 165 963 150 949 q 201 976 179 976 l 225 976 q 263 963 249 976 q 276 925 276 949 l 276 901 q 263 865 276 879 q 225 850 249 850 m 454 850 l 431 850 q 393 865 407 850 q 379 901 379 879 l 379 925 q 393 963 379 949 q 431 976 407 976 l 454 976 q 491 963 476 976 q 506 925 506 949 l 506 901 q 491 865 506 879 q 454 850 476 850 z "},"å":{"ha":653,"x_min":68,"x_max":569,"o":"m 90 656 l 229 694 l 388 694 q 512 651 469 694 q 554 528 554 607 l 554 110 l 569 0 l 474 -11 l 458 113 l 303 0 l 235 0 q 111 44 154 0 q 68 167 68 88 l 68 251 q 111 374 68 331 q 235 418 154 418 l 457 418 l 457 529 q 385 604 457 604 l 229 604 l 115 571 l 90 656 m 238 89 l 278 89 l 457 219 l 457 332 l 238 332 q 165 257 165 332 l 165 164 q 238 89 165 89 m 313 854 l 343 854 q 400 910 400 854 l 400 918 q 388 959 400 946 q 343 972 375 972 l 313 972 q 268 959 281 972 q 256 918 256 946 l 256 910 q 313 854 256 854 m 358 797 l 297 797 q 217 827 246 797 q 188 907 188 857 l 188 922 q 217 1003 188 974 q 297 1032 246 1032 l 358 1032 q 439 1003 410 1032 q 468 922 468 974 l 468 907 q 438 827 468 857 q 358 797 408 797 z "},"æ":{"ha":983,"x_min":68,"x_max":924,"o":"m 90 656 l 229 694 l 388 694 q 503 642 472 694 l 508 642 q 624 694 533 694 l 757 694 q 881 651 838 694 q 924 528 924 607 l 924 383 l 846 315 l 554 315 l 554 164 q 626 89 554 89 l 772 89 l 886 122 l 910 38 l 774 0 l 624 0 q 463 114 489 0 l 303 0 l 235 0 q 111 44 154 0 q 68 167 68 88 l 68 251 q 260 418 68 418 l 457 418 l 457 529 q 385 604 457 604 l 229 604 l 115 571 l 90 656 m 238 89 l 278 89 l 457 219 l 457 332 l 251 332 q 186 316 207 332 q 165 257 165 300 l 165 164 q 238 89 165 89 m 554 533 l 554 404 l 807 404 l 826 419 l 826 529 q 806 588 826 572 q 740 604 785 604 l 640 604 q 575 589 596 604 q 554 533 554 574 z "},"ç":{"ha":576,"x_min":85,"x_max":549,"o":"m 217 -219 l 286 -236 l 404 -236 q 435 -201 435 -236 l 435 -168 q 404 -132 435 -132 l 364 -132 q 304 -150 325 -132 l 233 -133 l 278 0 l 251 0 q 127 43 169 0 q 85 167 85 86 l 85 528 q 127 651 85 607 q 251 694 169 694 l 404 694 l 542 656 l 518 571 l 404 604 l 254 604 q 182 529 182 604 l 182 164 q 254 89 182 89 l 411 89 l 525 122 l 549 38 l 411 0 l 357 0 l 346 -32 l 314 -69 l 318 -74 q 365 -58 342 -58 l 394 -58 q 514 -168 514 -58 l 514 -187 q 487 -282 514 -253 q 393 -311 460 -311 l 286 -311 l 201 -292 l 217 -219 z "},"è":{"ha":610,"x_min":85,"x_max":550,"o":"m 251 0 q 127 43 169 0 q 85 167 85 86 l 85 528 q 127 651 85 607 q 251 694 169 694 l 383 694 q 508 651 465 694 q 550 528 550 607 l 550 383 l 474 315 l 182 315 l 182 164 q 254 89 182 89 l 400 89 l 513 122 l 538 38 l 400 0 l 251 0 m 182 529 l 182 404 l 433 404 l 453 419 l 453 529 q 381 604 453 604 l 254 604 q 182 529 182 604 m 178 992 l 357 801 l 314 765 l 110 919 q 178 992 118 972 z "},"é":{"ha":610,"x_min":85,"x_max":550,"o":"m 251 0 q 127 43 169 0 q 85 167 85 86 l 85 528 q 127 651 85 607 q 251 694 169 694 l 383 694 q 508 651 465 694 q 550 528 550 607 l 550 383 l 474 315 l 182 315 l 182 164 q 254 89 182 89 l 400 89 l 513 122 l 538 38 l 400 0 l 251 0 m 182 529 l 182 404 l 433 404 l 453 419 l 453 529 q 381 604 453 604 l 254 604 q 182 529 182 604 m 258 801 l 438 992 q 501 917 494 971 l 297 763 l 258 801 z "},"ê":{"ha":610,"x_min":85,"x_max":550,"o":"m 251 0 q 127 43 169 0 q 85 167 85 86 l 85 528 q 127 651 85 607 q 251 694 169 694 l 383 694 q 508 651 465 694 q 550 528 550 607 l 550 383 l 474 315 l 182 315 l 182 164 q 254 89 182 89 l 400 89 l 513 122 l 538 38 l 400 0 l 251 0 m 182 529 l 182 404 l 433 404 l 453 419 l 453 529 q 381 604 453 604 l 254 604 q 182 529 182 604 m 356 994 l 510 825 l 468 792 l 317 910 l 311 910 l 160 792 l 118 825 l 274 994 q 356 994 311 1006 z "},"ë":{"ha":610,"x_min":85,"x_max":550,"o":"m 251 0 q 127 43 169 0 q 85 167 85 86 l 85 528 q 127 651 85 607 q 251 694 169 694 l 383 694 q 508 651 465 694 q 550 528 550 607 l 550 383 l 474 315 l 182 315 l 182 164 q 254 89 182 89 l 400 89 l 513 122 l 538 38 l 400 0 l 251 0 m 182 529 l 182 404 l 433 404 l 453 419 l 453 529 q 381 604 453 604 l 254 604 q 182 529 182 604 m 211 850 l 188 850 q 151 865 165 850 q 136 901 136 879 l 136 925 q 151 963 136 949 q 188 976 165 976 l 211 976 q 249 963 235 976 q 263 925 263 949 l 263 901 q 249 865 263 879 q 211 850 235 850 m 440 850 l 417 850 q 379 865 393 850 q 365 901 365 879 l 365 925 q 379 963 365 949 q 417 976 393 976 l 440 976 q 477 963 463 976 q 492 925 492 949 l 492 901 q 477 865 492 879 q 440 850 463 850 z "},"ì":{"ha":294,"x_min":-56,"x_max":196,"o":"m 13 992 l 192 801 l 149 765 l -56 919 q 13 992 -47 972 m 99 0 l 99 583 l 83 694 l 179 707 l 196 582 l 196 0 l 99 0 z "},"í":{"ha":294,"x_min":83,"x_max":335,"o":"m 92 801 l 271 992 q 335 917 328 971 l 131 763 l 92 801 m 99 0 l 99 583 l 83 694 l 179 707 l 196 582 l 196 0 l 99 0 z "},"î":{"ha":294,"x_min":-47,"x_max":344,"o":"m 190 994 l 344 825 l 303 792 l 151 910 l 146 910 l -6 792 l -47 825 l 108 994 q 190 994 146 1006 m 99 0 l 99 583 l 83 694 l 179 707 l 196 582 l 196 0 l 99 0 z "},"ï":{"ha":294,"x_min":-29,"x_max":326,"o":"m 46 850 l 22 850 q -15 865 0 850 q -29 901 -29 879 l -29 925 q -15 963 -29 949 q 22 976 0 976 l 46 976 q 83 963 69 976 q 97 925 97 949 l 97 901 q 83 865 97 879 q 46 850 69 850 m 275 850 l 251 850 q 214 865 228 850 q 200 901 200 879 l 200 925 q 214 963 200 949 q 251 976 228 976 l 275 976 q 312 963 297 976 q 326 925 326 949 l 326 901 q 312 865 326 879 q 275 850 297 850 m 99 0 l 99 583 l 83 694 l 179 707 l 196 582 l 196 0 l 99 0 z "},"ð":{"ha":660,"x_min":90,"x_max":576,"o":"m 110 999 l 156 1069 l 282 992 l 346 1086 l 413 1044 l 350 950 l 410 914 q 538 797 499 860 q 576 603 576 733 l 576 199 q 539 50 576 100 q 410 0 501 0 l 257 0 q 128 50 165 0 q 90 199 90 100 l 90 528 q 133 651 90 607 q 257 694 175 694 l 386 694 q 485 654 450 694 l 489 656 q 456 764 485 725 q 368 838 426 803 l 303 878 l 238 779 l 169 822 l 235 919 l 110 999 m 386 604 l 260 604 q 203 583 219 604 q 188 508 188 561 l 188 164 q 208 104 188 119 q 278 89 229 89 l 407 89 q 479 164 479 89 l 479 521 q 458 585 479 565 q 386 604 436 604 z "},"ñ":{"ha":683,"x_min":85,"x_max":599,"o":"m 585 106 l 599 0 l 503 -11 l 488 111 l 488 529 q 415 604 488 604 l 371 604 l 196 507 l 196 0 l 99 0 l 99 579 l 85 692 l 179 704 l 192 606 l 349 694 l 418 694 q 542 651 499 694 q 585 528 585 607 l 585 106 m 439 824 l 413 824 q 347 846 379 824 l 289 889 q 254 900 275 900 l 242 900 q 215 895 222 900 q 207 874 207 890 l 207 858 l 193 813 l 129 843 l 138 878 l 138 900 q 161 963 138 946 q 232 981 185 981 l 263 981 q 324 961 294 981 q 341 948 329 957 q 358 935 353 939 q 372 926 363 932 q 385 917 381 919 q 395 910 389 914 q 406 906 401 907 q 415 904 411 904 l 429 904 q 456 909 449 904 q 464 931 464 914 l 464 946 l 478 992 l 546 972 l 533 926 l 533 904 q 510 841 533 858 q 439 824 486 824 z "},"ò":{"ha":656,"x_min":85,"x_max":571,"o":"m 401 604 l 254 604 q 182 529 182 604 l 182 164 q 254 89 182 89 l 401 89 q 474 164 474 89 l 474 529 q 401 604 474 604 m 404 0 l 251 0 q 127 43 169 0 q 85 167 85 86 l 85 528 q 127 651 85 607 q 251 694 169 694 l 404 694 q 528 651 486 694 q 571 528 571 607 l 571 167 q 528 43 571 86 q 404 0 486 0 m 192 992 l 371 801 l 328 765 l 124 919 q 192 992 132 972 z "},"ó":{"ha":656,"x_min":85,"x_max":571,"o":"m 401 604 l 254 604 q 182 529 182 604 l 182 164 q 254 89 182 89 l 401 89 q 474 164 474 89 l 474 529 q 401 604 474 604 m 404 0 l 251 0 q 127 43 169 0 q 85 167 85 86 l 85 528 q 127 651 85 607 q 251 694 169 694 l 404 694 q 528 651 486 694 q 571 528 571 607 l 571 167 q 528 43 571 86 q 404 0 486 0 m 272 801 l 451 992 q 515 917 508 971 l 311 763 l 272 801 z "},"ô":{"ha":656,"x_min":85,"x_max":571,"o":"m 401 604 l 254 604 q 182 529 182 604 l 182 164 q 254 89 182 89 l 401 89 q 474 164 474 89 l 474 529 q 401 604 474 604 m 404 0 l 251 0 q 127 43 169 0 q 85 167 85 86 l 85 528 q 127 651 85 607 q 251 694 169 694 l 404 694 q 528 651 486 694 q 571 528 571 607 l 571 167 q 528 43 571 86 q 404 0 486 0 m 369 994 l 524 825 l 482 792 l 331 910 l 325 910 l 174 792 l 132 825 l 288 994 q 369 994 325 1006 z "},"õ":{"ha":656,"x_min":85,"x_max":571,"o":"m 401 604 l 254 604 q 182 529 182 604 l 182 164 q 254 89 182 89 l 401 89 q 474 164 474 89 l 474 529 q 401 604 474 604 m 404 0 l 251 0 q 127 43 169 0 q 85 167 85 86 l 85 528 q 127 651 85 607 q 251 694 169 694 l 404 694 q 528 651 486 694 q 571 528 571 607 l 571 167 q 528 43 571 86 q 404 0 486 0 m 426 824 l 400 824 q 335 846 367 824 l 276 889 q 242 900 263 900 l 229 900 q 202 895 210 900 q 194 874 194 890 l 194 858 l 181 813 l 117 843 l 125 878 l 125 900 q 149 963 125 946 q 219 981 172 981 l 250 981 q 311 961 282 981 q 328 948 317 957 q 345 935 340 939 q 359 926 350 932 q 372 917 368 919 q 383 910 376 914 q 394 906 389 907 q 403 904 399 904 l 417 904 q 444 909 436 904 q 451 931 451 914 l 451 946 l 465 992 l 533 972 l 521 926 l 521 904 q 497 841 521 858 q 426 824 474 824 z "},"ö":{"ha":656,"x_min":85,"x_max":571,"o":"m 401 604 l 254 604 q 182 529 182 604 l 182 164 q 254 89 182 89 l 401 89 q 474 164 474 89 l 474 529 q 401 604 474 604 m 404 0 l 251 0 q 127 43 169 0 q 85 167 85 86 l 85 528 q 127 651 85 607 q 251 694 169 694 l 404 694 q 528 651 486 694 q 571 528 571 607 l 571 167 q 528 43 571 86 q 404 0 486 0 m 225 850 l 201 850 q 165 865 179 850 q 150 901 150 879 l 150 925 q 165 963 150 949 q 201 976 179 976 l 225 976 q 263 963 249 976 q 276 925 276 949 l 276 901 q 263 865 276 879 q 225 850 249 850 m 454 850 l 431 850 q 393 865 407 850 q 379 901 379 879 l 379 925 q 393 963 379 949 q 431 976 407 976 l 454 976 q 491 963 476 976 q 506 925 506 949 l 506 901 q 491 865 506 879 q 454 850 476 850 z "},"÷":{"ha":640,"x_min":106,"x_max":535,"o":"m 535 336 l 106 336 l 106 421 l 535 421 l 535 336 m 333 108 l 308 108 q 271 124 286 108 q 256 161 256 139 l 256 186 q 270 224 256 210 q 308 239 285 239 l 333 239 q 372 224 357 239 q 386 186 386 210 l 386 161 q 372 123 386 138 q 333 108 357 108 m 333 535 l 308 535 q 270 549 285 535 q 256 588 256 564 l 256 613 q 271 651 256 636 q 308 665 286 665 l 333 665 q 372 651 357 665 q 386 613 386 636 l 386 588 q 372 549 386 564 q 333 535 357 535 z "},"ø":{"ha":656,"x_min":85,"x_max":571,"o":"m 565 733 l 526 651 q 571 528 571 607 l 571 167 q 528 43 571 86 q 404 0 486 0 l 251 0 q 197 6 218 0 l 156 -85 l 93 -51 l 135 36 q 85 167 85 78 l 85 528 q 127 651 85 607 q 251 694 169 694 l 404 694 q 465 686 439 694 l 503 765 l 565 733 m 401 604 l 254 604 q 182 529 182 604 l 182 164 q 189 121 182 139 l 413 604 l 401 604 m 474 529 q 469 560 474 547 l 249 89 l 254 89 l 401 89 q 474 164 474 89 l 474 529 z "},"ù":{"ha":683,"x_min":85,"x_max":599,"o":"m 99 582 l 85 692 l 179 704 l 196 576 l 196 164 q 268 89 196 89 l 308 89 l 488 206 l 488 694 l 585 694 l 585 110 l 599 0 l 504 -11 l 489 99 l 333 0 l 265 0 q 141 43 183 0 q 99 167 99 86 l 99 582 m 206 992 l 385 801 l 342 765 l 138 919 q 206 992 146 972 z "},"ú":{"ha":683,"x_min":85,"x_max":599,"o":"m 99 582 l 85 692 l 179 704 l 196 576 l 196 164 q 268 89 196 89 l 308 89 l 488 206 l 488 694 l 585 694 l 585 110 l 599 0 l 504 -11 l 489 99 l 333 0 l 265 0 q 141 43 183 0 q 99 167 99 86 l 99 582 m 286 801 l 465 992 q 529 917 522 971 l 325 763 l 286 801 z "},"û":{"ha":683,"x_min":85,"x_max":599,"o":"m 99 582 l 85 692 l 179 704 l 196 576 l 196 164 q 268 89 196 89 l 308 89 l 488 206 l 488 694 l 585 694 l 585 110 l 599 0 l 504 -11 l 489 99 l 333 0 l 265 0 q 141 43 183 0 q 99 167 99 86 l 99 582 m 383 994 l 538 825 l 496 792 l 344 910 l 339 910 l 188 792 l 146 825 l 301 994 q 383 994 339 1006 z "},"ü":{"ha":683,"x_min":85,"x_max":599,"o":"m 99 582 l 85 692 l 179 704 l 196 576 l 196 164 q 268 89 196 89 l 308 89 l 488 206 l 488 694 l 585 694 l 585 110 l 599 0 l 504 -11 l 489 99 l 333 0 l 265 0 q 141 43 183 0 q 99 167 99 86 l 99 582 m 239 850 l 215 850 q 178 865 193 850 q 164 901 164 879 l 164 925 q 178 963 164 949 q 215 976 193 976 l 239 976 q 276 963 263 976 q 290 925 290 949 l 290 901 q 276 865 290 879 q 239 850 263 850 m 468 850 l 444 850 q 407 865 421 850 q 393 901 393 879 l 393 925 q 407 963 393 949 q 444 976 421 976 l 468 976 q 505 963 490 976 q 519 925 519 949 l 519 901 q 505 865 519 879 q 468 850 490 850 z "},"ý":{"ha":683,"x_min":85,"x_max":585,"o":"m 488 -132 l 488 97 l 333 0 l 265 0 q 141 43 183 0 q 99 167 99 86 l 99 582 l 85 692 l 179 704 l 196 576 l 196 164 q 268 89 196 89 l 308 89 l 488 206 l 488 694 l 585 694 l 585 -132 q 393 -319 585 -319 l 257 -319 l 118 -282 l 143 -197 l 257 -231 l 403 -231 q 468 -207 449 -231 q 488 -132 488 -183 m 286 801 l 465 992 q 529 917 522 971 l 325 763 l 286 801 z "},"þ":{"ha":671,"x_min":85,"x_max":586,"o":"m 372 604 l 197 507 l 197 119 l 356 89 l 417 89 q 489 164 489 89 l 489 529 q 417 604 489 604 l 372 604 m 197 717 l 193 606 l 350 694 l 419 694 q 543 651 500 694 q 586 528 586 607 l 586 167 q 543 44 586 88 q 419 0 500 0 l 353 0 l 197 31 l 197 -319 l 100 -319 l 100 917 l 85 1029 l 181 1042 l 197 915 l 197 717 z "},"ÿ":{"ha":683,"x_min":85,"x_max":585,"o":"m 488 -132 l 488 97 l 333 0 l 265 0 q 141 43 183 0 q 99 167 99 86 l 99 582 l 85 692 l 179 704 l 196 576 l 196 164 q 268 89 196 89 l 308 89 l 488 206 l 488 694 l 585 694 l 585 -132 q 393 -319 585 -319 l 257 -319 l 118 -282 l 143 -197 l 257 -231 l 403 -231 q 468 -207 449 -231 q 488 -132 488 -183 m 239 850 l 215 850 q 178 865 193 850 q 164 901 164 879 l 164 925 q 178 963 164 949 q 215 976 193 976 l 239 976 q 276 963 263 976 q 290 925 290 949 l 290 901 q 276 865 290 879 q 239 850 263 850 m 468 850 l 444 850 q 407 865 421 850 q 393 901 393 879 l 393 925 q 407 963 393 949 q 444 976 421 976 l 468 976 q 505 963 490 976 q 519 925 519 949 l 519 901 q 505 865 519 879 q 468 850 490 850 z "},"ı":{"ha":294,"x_min":83,"x_max":196,"o":"m 99 0 l 99 583 l 83 694 l 179 707 l 196 582 l 196 0 l 99 0 z "},"Œ":{"ha":1131,"x_min":99,"x_max":1081,"o":"m 265 972 l 1053 972 l 1053 882 l 665 882 l 665 554 l 983 554 l 983 464 l 665 464 l 665 89 l 1081 89 l 1081 0 l 265 0 q 141 43 183 0 q 99 167 99 86 l 99 806 q 141 928 99 885 q 265 972 183 972 m 196 807 l 196 164 q 268 89 196 89 l 568 89 l 568 882 l 268 882 q 196 807 196 882 z "},"œ":{"ha":999,"x_min":85,"x_max":939,"o":"m 401 604 l 254 604 q 182 529 182 604 l 182 164 q 254 89 182 89 l 401 89 q 474 164 474 89 l 474 529 q 401 604 474 604 m 571 529 l 571 404 l 822 404 l 842 419 l 842 529 q 769 604 842 604 l 643 604 q 571 529 571 604 m 404 0 l 251 0 q 127 43 169 0 q 85 167 85 86 l 85 528 q 127 651 85 607 q 251 694 169 694 l 404 694 q 519 642 489 694 l 525 642 q 640 694 550 694 l 772 694 q 897 651 854 694 q 939 528 939 607 l 939 383 l 863 315 l 571 315 l 571 164 q 643 89 571 89 l 789 89 l 901 122 l 926 38 l 789 0 l 640 0 q 525 53 550 0 l 519 53 q 404 0 489 0 z "},"ˆ":{"ha":613,"x_min":108,"x_max":500,"o":"m 346 1274 l 500 1104 l 458 1071 l 307 1189 l 301 1189 l 150 1071 l 108 1104 l 264 1274 q 346 1274 301 1285 z "},"ˇ":{"ha":661,"x_min":135,"x_max":526,"o":"m 135 1258 l 176 1292 l 328 1174 l 333 1174 l 485 1292 l 526 1258 l 371 1089 q 330 1083 350 1082 q 289 1089 310 1083 l 135 1258 z "},"˚":{"ha":553,"x_min":136,"x_max":417,"o":"m 261 1133 l 292 1133 q 349 1189 349 1133 l 349 1197 q 336 1238 349 1225 q 292 1251 324 1251 l 261 1251 q 217 1238 229 1251 q 204 1197 204 1225 l 204 1189 q 261 1133 204 1133 m 307 1076 l 246 1076 q 165 1106 194 1076 q 136 1186 136 1136 l 136 1201 q 165 1282 136 1253 q 246 1311 194 1311 l 307 1311 q 388 1282 358 1311 q 417 1201 417 1253 l 417 1186 q 387 1106 417 1136 q 307 1076 357 1076 z "},"˜":{"ha":672,"x_min":126,"x_max":543,"o":"m 436 1103 l 410 1103 q 344 1125 376 1103 l 286 1168 q 251 1179 272 1179 l 239 1179 q 212 1174 219 1179 q 204 1153 204 1169 l 204 1138 l 190 1092 l 126 1122 l 135 1157 l 135 1179 q 158 1242 135 1225 q 229 1260 182 1260 l 260 1260 q 321 1240 292 1260 q 338 1227 326 1236 q 355 1215 350 1218 q 369 1205 360 1211 q 382 1196 378 1199 q 392 1190 386 1193 q 403 1185 399 1186 q 413 1183 408 1183 l 426 1183 q 453 1188 446 1183 q 461 1210 461 1193 l 461 1225 l 475 1271 l 543 1251 l 531 1206 l 531 1183 q 507 1120 531 1138 q 436 1103 483 1103 z "},"Ё":{"ha":675,"x_min":113,"x_max":625,"o":"m 113 972 l 597 972 l 597 882 l 210 882 l 210 554 l 528 554 l 528 464 l 210 464 l 210 89 l 625 89 l 625 0 l 113 0 l 113 972 m 253 1103 l 229 1103 q 192 1117 207 1103 q 178 1154 178 1132 l 178 1178 q 192 1215 178 1201 q 229 1229 207 1229 l 253 1229 q 290 1215 276 1229 q 304 1178 304 1201 l 304 1154 q 290 1117 304 1132 q 253 1103 276 1103 m 482 1103 l 458 1103 q 421 1117 435 1103 q 407 1154 407 1132 l 407 1178 q 421 1215 407 1201 q 458 1229 435 1229 l 482 1229 q 519 1215 504 1229 q 533 1178 533 1201 l 533 1154 q 519 1117 533 1132 q 482 1103 504 1103 z "},"Ђ":{"ha":836,"x_min":29,"x_max":744,"o":"m 29 972 l 585 972 l 585 882 l 356 882 l 356 608 l 508 694 l 578 694 q 701 651 658 694 q 744 528 744 607 l 744 -17 q 740 -104 744 -62 q 546 -251 722 -251 l 429 -218 l 454 -133 l 546 -161 l 563 -161 q 628 -137 608 -161 q 647 -62 647 -114 l 647 513 q 629 584 647 564 q 563 604 611 604 l 531 604 l 356 508 l 356 0 l 258 0 l 258 882 l 29 882 l 29 972 z "},"Ѓ":{"ha":614,"x_min":113,"x_max":578,"o":"m 113 972 l 578 972 l 578 882 l 210 882 l 210 0 l 113 0 l 113 972 m 504 1218 q 540 1149 540 1189 q 536 1122 540 1136 l 288 1060 l 265 1113 l 504 1218 z "},"Є":{"ha":701,"x_min":99,"x_max":651,"o":"m 265 972 l 497 972 l 636 933 l 611 849 l 497 882 l 268 882 q 196 807 196 882 l 196 542 l 514 542 l 514 453 l 196 453 l 196 164 q 268 89 196 89 l 514 89 l 628 122 l 651 38 l 514 0 l 265 0 q 141 43 183 0 q 99 167 99 86 l 99 806 q 141 928 99 885 q 265 972 183 972 z "},"Ѕ":{"ha":682,"x_min":54,"x_max":621,"o":"m 192 0 l 54 38 l 78 122 l 192 89 l 444 89 q 502 110 481 89 q 524 171 524 132 l 524 247 q 517 301 524 286 q 478 339 510 317 l 146 571 q 65 719 65 628 l 65 799 q 112 925 65 878 q 239 972 158 972 l 458 972 l 596 933 l 572 849 l 458 882 l 242 882 q 184 861 206 882 q 163 800 163 840 l 163 731 q 171 678 163 694 q 208 640 179 661 l 544 406 q 621 260 621 353 l 621 174 q 575 47 621 93 q 447 0 529 0 l 192 0 z "},"І":{"ha":322,"x_min":113,"x_max":210,"o":"m 210 0 l 113 0 l 113 972 l 210 972 l 210 0 z "},"Ї":{"ha":322,"x_min":-12,"x_max":343,"o":"m 210 0 l 113 0 l 113 972 l 210 972 l 210 0 m 63 1103 l 39 1103 q 2 1117 17 1103 q -12 1154 -12 1132 l -12 1178 q 2 1215 -12 1201 q 39 1229 17 1229 l 63 1229 q 100 1215 86 1229 q 114 1178 114 1201 l 114 1154 q 100 1117 114 1132 q 63 1103 86 1103 m 292 1103 l 268 1103 q 231 1117 244 1103 q 217 1154 217 1132 l 217 1178 q 231 1215 217 1201 q 268 1229 244 1229 l 292 1229 q 328 1215 314 1229 q 343 1178 343 1201 l 343 1154 q 328 1117 343 1132 q 292 1103 314 1103 z "},"Ј":{"ha":510,"x_min":29,"x_max":397,"o":"m 200 0 l 156 0 l 29 35 l 53 119 l 156 89 l 210 89 q 300 194 300 89 l 300 972 l 397 972 l 397 194 q 347 50 397 100 q 200 0 296 0 z "},"Љ":{"ha":1228,"x_min":57,"x_max":1164,"o":"m 994 471 l 701 471 l 701 89 l 994 89 q 1067 164 1067 89 l 1067 393 q 994 471 1067 471 m 604 882 l 301 882 l 251 164 q 216 33 247 72 q 104 -7 185 -7 l 57 -7 l 57 82 l 101 82 q 142 98 132 82 q 160 167 153 114 l 221 972 l 701 972 l 701 561 l 997 561 q 1121 516 1078 561 q 1164 392 1164 471 l 1164 167 q 1121 44 1164 88 q 997 0 1078 0 l 604 0 l 604 882 z "},"Њ":{"ha":1213,"x_min":113,"x_max":1149,"o":"m 979 451 l 686 451 l 686 89 l 979 89 q 1051 164 1051 89 l 1051 374 q 979 451 1051 451 m 589 0 l 589 453 l 210 453 l 210 0 l 113 0 l 113 972 l 210 972 l 210 542 l 589 542 l 589 972 l 686 972 l 686 542 l 982 542 q 1106 497 1063 542 q 1149 372 1149 451 l 1149 167 q 1106 44 1149 88 q 982 0 1063 0 l 589 0 z "},"Ћ":{"ha":781,"x_min":29,"x_max":703,"o":"m 689 528 l 689 104 l 703 0 l 607 -11 l 592 111 l 592 513 q 574 584 592 564 q 507 604 556 604 l 475 604 l 300 507 l 300 0 l 203 0 l 203 882 l 29 882 l 29 972 l 529 972 l 529 882 l 300 882 l 300 608 l 453 694 l 522 694 q 646 651 603 694 q 689 528 689 607 z "},"Ќ":{"ha":719,"x_min":106,"x_max":703,"o":"m 500 876 l 546 983 l 653 969 l 600 860 l 367 513 l 703 0 l 590 0 l 283 467 l 203 467 l 203 0 l 106 0 l 106 972 l 203 972 l 203 558 l 289 558 l 500 876 m 504 1218 q 540 1149 540 1189 q 536 1122 540 1136 l 288 1060 l 265 1113 l 504 1218 z "},"Ў":{"ha":707,"x_min":51,"x_max":671,"o":"m 296 1043 q 230 1059 251 1043 q 201 1124 208 1075 l 193 1167 l 257 1186 q 267 1145 263 1160 q 277 1123 272 1131 q 289 1114 282 1115 q 306 1113 296 1113 l 418 1113 q 435 1114 428 1113 q 447 1123 442 1115 q 456 1145 451 1131 q 467 1186 461 1160 l 531 1167 l 522 1124 q 511 1081 518 1097 q 493 1057 504 1065 q 466 1046 482 1049 q 428 1043 450 1043 l 296 1043 m 371 154 l 396 257 l 247 257 l 68 861 l 51 972 l 147 983 l 161 875 l 318 346 l 418 346 l 572 972 l 671 972 l 472 174 q 410 31 447 72 q 303 -10 374 -10 l 269 -10 l 172 13 l 179 101 l 271 79 l 294 79 q 371 154 353 79 z "},"Џ":{"ha":799,"x_min":113,"x_max":686,"o":"m 449 -236 l 351 -236 l 351 0 l 113 0 l 113 972 l 210 972 l 210 89 l 589 89 l 589 972 l 686 972 l 686 0 l 449 0 l 449 -236 z "},"А":{"ha":768,"x_min":36,"x_max":732,"o":"m 536 388 l 407 882 l 363 882 l 232 388 l 536 388 m 210 299 l 132 0 l 36 0 l 290 972 l 478 972 l 732 0 l 636 0 l 557 299 l 210 299 z "},"Б":{"ha":763,"x_min":113,"x_max":688,"o":"m 210 882 l 210 563 l 514 563 q 641 515 594 563 q 688 389 688 468 l 688 174 q 641 47 688 94 q 514 0 594 0 l 113 0 l 113 972 l 654 972 l 654 882 l 210 882 m 511 474 l 210 474 l 210 89 l 511 89 q 569 110 547 89 q 590 171 590 132 l 590 392 q 569 452 590 431 q 511 474 547 474 z "},"В":{"ha":771,"x_min":113,"x_max":686,"o":"m 210 89 l 517 89 q 589 164 589 89 l 589 363 q 565 428 589 406 q 501 451 542 451 l 210 451 l 210 89 m 485 882 l 210 882 l 210 540 l 471 540 q 533 564 510 540 q 557 629 557 588 l 557 807 q 485 882 557 882 m 519 0 l 113 0 l 113 972 l 488 972 q 611 928 568 972 q 654 806 654 885 l 654 647 q 583 513 654 547 l 567 513 l 567 507 l 583 507 q 686 351 686 474 l 686 167 q 644 43 686 86 q 519 0 601 0 z "},"Г":{"ha":614,"x_min":113,"x_max":578,"o":"m 113 972 l 578 972 l 578 882 l 210 882 l 210 0 l 113 0 l 113 972 z "},"Д":{"ha":872,"x_min":15,"x_max":833,"o":"m 15 92 l 126 92 l 158 215 l 235 972 l 729 972 l 729 92 l 833 92 l 833 -68 l 818 -190 l 722 -179 l 736 -75 l 736 0 l 113 0 l 113 -75 l 126 -179 l 31 -190 l 15 -68 l 15 92 m 232 92 l 632 92 l 632 882 l 317 882 l 249 172 l 232 92 z "},"Е":{"ha":675,"x_min":113,"x_max":625,"o":"m 113 972 l 597 972 l 597 882 l 210 882 l 210 554 l 528 554 l 528 464 l 210 464 l 210 89 l 625 89 l 625 0 l 113 0 l 113 972 z "},"Ж":{"ha":1096,"x_min":-4,"x_max":1093,"o":"m 153 983 l 199 876 l 410 558 l 496 558 l 496 972 l 593 972 l 593 558 l 679 558 l 890 876 l 936 983 l 1043 969 l 990 860 l 757 513 l 1093 0 l 981 0 l 674 467 l 593 467 l 593 0 l 496 0 l 496 467 l 415 467 l 108 0 l -4 0 l 332 513 l 99 860 l 46 969 l 153 983 z "},"З":{"ha":674,"x_min":49,"x_max":589,"o":"m 186 0 l 49 38 l 72 122 l 186 89 l 419 89 q 492 164 492 89 l 492 363 q 467 428 492 406 q 403 451 443 451 l 182 451 l 182 540 l 372 540 q 435 564 411 540 q 458 629 458 588 l 458 807 q 386 882 458 882 l 200 882 l 86 849 l 63 933 l 200 972 l 389 972 q 513 928 471 972 q 556 806 556 885 l 556 647 q 485 513 556 546 l 469 513 l 469 507 l 485 507 q 589 351 589 474 l 589 167 q 546 44 589 88 q 422 0 503 0 l 186 0 z "},"И":{"ha":815,"x_min":113,"x_max":703,"o":"m 257 294 l 606 972 l 703 972 l 703 0 l 606 0 l 606 558 l 621 818 l 615 818 l 557 679 l 210 0 l 113 0 l 113 972 l 210 972 l 210 415 l 193 156 l 199 156 l 257 294 z "},"Й":{"ha":815,"x_min":113,"x_max":703,"o":"m 358 1043 q 292 1059 314 1043 q 264 1124 271 1075 l 256 1167 l 319 1186 q 330 1145 325 1160 q 340 1123 335 1131 q 351 1114 344 1115 q 368 1113 358 1113 l 481 1113 q 497 1114 490 1113 q 509 1123 504 1115 q 519 1145 514 1131 q 529 1186 524 1160 l 593 1167 l 585 1124 q 574 1081 581 1097 q 556 1057 567 1065 q 528 1046 544 1049 q 490 1043 513 1043 l 358 1043 m 257 294 l 606 972 l 703 972 l 703 0 l 606 0 l 606 558 l 621 818 l 615 818 l 557 679 l 210 0 l 113 0 l 113 972 l 210 972 l 210 415 l 193 156 l 199 156 l 257 294 z "},"К":{"ha":719,"x_min":106,"x_max":703,"o":"m 500 876 l 546 983 l 653 969 l 600 860 l 367 513 l 703 0 l 590 0 l 283 467 l 203 467 l 203 0 l 106 0 l 106 972 l 203 972 l 203 558 l 289 558 l 500 876 z "},"Л":{"ha":814,"x_min":57,"x_max":701,"o":"m 160 167 l 221 972 l 701 972 l 701 0 l 604 0 l 604 882 l 301 882 l 251 164 q 216 33 247 72 q 104 -7 185 -7 l 57 -7 l 57 82 l 101 82 q 142 98 132 82 q 160 167 153 114 z "},"М":{"ha":967,"x_min":113,"x_max":863,"o":"m 776 817 l 721 650 l 529 207 l 446 207 l 254 650 l 199 817 l 193 817 l 210 557 l 210 0 l 113 0 l 113 972 l 210 972 l 488 322 l 765 972 l 863 972 l 863 0 l 765 0 l 765 557 l 782 817 l 776 817 z "},"Н":{"ha":806,"x_min":113,"x_max":693,"o":"m 693 972 l 693 0 l 596 0 l 596 453 l 210 453 l 210 0 l 113 0 l 113 972 l 210 972 l 210 542 l 596 542 l 596 972 l 693 972 z "},"О":{"ha":778,"x_min":99,"x_max":679,"o":"m 510 882 l 268 882 q 196 807 196 882 l 196 164 q 268 89 196 89 l 510 89 q 582 164 582 89 l 582 807 q 510 882 582 882 m 513 0 l 265 0 q 141 43 183 0 q 99 167 99 86 l 99 806 q 141 928 99 885 q 265 972 183 972 l 513 972 q 636 928 593 972 q 679 806 679 885 l 679 167 q 636 44 679 88 q 513 0 593 0 z "},"П":{"ha":799,"x_min":113,"x_max":686,"o":"m 686 972 l 686 0 l 589 0 l 589 882 l 210 882 l 210 0 l 113 0 l 113 972 l 686 972 z "},"Р":{"ha":736,"x_min":113,"x_max":679,"o":"m 113 972 l 513 972 q 636 928 593 972 q 679 806 679 885 l 679 549 q 636 426 679 469 q 513 382 593 382 l 210 382 l 210 0 l 113 0 l 113 972 m 210 882 l 210 471 l 510 471 q 582 546 582 471 l 582 807 q 510 882 582 882 l 210 882 z "},"С":{"ha":701,"x_min":99,"x_max":651,"o":"m 265 972 l 497 972 l 636 933 l 611 849 l 497 882 l 268 882 q 196 807 196 882 l 196 164 q 268 89 196 89 l 514 89 l 628 122 l 651 38 l 514 0 l 265 0 q 141 43 183 0 q 99 167 99 86 l 99 806 q 141 928 99 885 q 265 972 183 972 z "},"Т":{"ha":614,"x_min":29,"x_max":585,"o":"m 29 972 l 585 972 l 585 882 l 356 882 l 356 0 l 258 0 l 258 882 l 29 882 l 29 972 z "},"У":{"ha":707,"x_min":51,"x_max":671,"o":"m 371 154 l 396 257 l 247 257 l 68 861 l 51 972 l 147 983 l 161 875 l 318 346 l 418 346 l 572 972 l 671 972 l 472 174 q 410 31 447 72 q 303 -10 374 -10 l 269 -10 l 172 13 l 179 101 l 271 79 l 294 79 q 371 154 353 79 z "},"Ф":{"ha":956,"x_min":71,"x_max":885,"o":"m 526 165 l 526 0 l 429 0 l 429 165 l 238 165 q 113 208 156 165 q 71 332 71 251 l 71 792 q 113 915 71 871 q 238 958 156 958 l 429 958 l 429 1097 l 526 1097 l 526 958 l 718 958 q 842 915 799 958 q 885 792 885 871 l 885 332 q 842 209 885 253 q 718 165 799 165 l 526 165 m 526 868 l 526 254 l 715 254 q 788 329 788 254 l 788 793 q 715 868 788 868 l 526 868 m 429 868 l 240 868 q 168 793 168 868 l 168 329 q 240 254 168 254 l 429 254 l 429 868 z "},"Х":{"ha":704,"x_min":29,"x_max":675,"o":"m 592 860 l 422 513 l 675 0 l 572 0 l 354 442 l 349 442 l 132 0 l 29 0 l 282 513 l 57 972 l 161 972 l 350 585 l 356 585 l 503 892 l 528 982 l 629 969 l 592 860 z "},"Ц":{"ha":836,"x_min":113,"x_max":797,"o":"m 589 972 l 686 972 l 686 89 l 797 89 l 797 -68 l 782 -190 l 686 -179 l 700 -75 l 700 0 l 113 0 l 113 972 l 210 972 l 210 89 l 589 89 l 589 972 z "},"Ч":{"ha":746,"x_min":67,"x_max":633,"o":"m 536 972 l 633 972 l 633 0 l 536 0 l 536 424 l 436 396 l 233 396 q 110 440 153 396 q 67 563 67 483 l 67 972 l 164 972 l 164 560 q 236 485 164 485 l 435 485 l 536 513 l 536 972 z "},"Ш":{"ha":1122,"x_min":113,"x_max":1010,"o":"m 113 972 l 210 972 l 210 89 l 513 89 l 513 972 l 610 972 l 610 89 l 913 89 l 913 972 l 1010 972 l 1010 0 l 113 0 l 113 972 z "},"Щ":{"ha":1160,"x_min":113,"x_max":1121,"o":"m 113 972 l 210 972 l 210 89 l 513 89 l 513 972 l 610 972 l 610 89 l 913 89 l 913 972 l 1010 972 l 1010 89 l 1121 89 l 1121 -68 l 1106 -190 l 1010 -179 l 1024 -75 l 1024 0 l 113 0 l 113 972 z "},"Ъ":{"ha":847,"x_min":11,"x_max":783,"o":"m 321 471 l 321 89 l 614 89 q 686 164 686 89 l 686 393 q 614 471 686 471 l 321 471 m 133 882 l 22 867 l 11 958 l 133 972 l 321 972 l 321 561 l 617 561 q 740 516 697 561 q 783 392 783 471 l 783 167 q 740 44 783 88 q 617 0 697 0 l 224 0 l 224 882 l 133 882 z "},"Ы":{"ha":1039,"x_min":113,"x_max":926,"o":"m 829 0 l 829 972 l 926 972 l 926 0 l 829 0 m 113 0 l 113 972 l 210 972 l 210 561 l 506 561 q 629 516 586 561 q 672 392 672 471 l 672 167 q 629 44 672 88 q 506 0 586 0 l 113 0 m 210 471 l 210 89 l 503 89 q 575 164 575 89 l 575 393 q 503 471 575 471 l 210 471 z "},"Ь":{"ha":736,"x_min":113,"x_max":672,"o":"m 113 0 l 113 972 l 210 972 l 210 561 l 506 561 q 629 516 586 561 q 672 392 672 471 l 672 167 q 629 44 672 88 q 506 0 586 0 l 113 0 m 210 471 l 210 89 l 503 89 q 575 164 575 89 l 575 393 q 503 471 575 471 l 210 471 z "},"Э":{"ha":701,"x_min":50,"x_max":603,"o":"m 204 972 l 436 972 q 560 928 518 972 q 603 806 603 885 l 603 167 q 560 43 603 86 q 436 0 518 0 l 188 0 l 50 38 l 74 122 l 188 89 l 433 89 q 506 164 506 89 l 506 453 l 188 453 l 188 542 l 506 542 l 506 807 q 433 882 506 882 l 204 882 l 90 849 l 65 933 l 204 972 z "},"Ю":{"ha":1035,"x_min":113,"x_max":936,"o":"m 769 0 l 543 0 q 419 43 461 0 q 376 167 376 86 l 376 460 l 210 460 l 210 0 l 113 0 l 113 972 l 210 972 l 210 542 l 376 542 l 376 806 q 419 928 376 885 q 543 972 461 972 l 769 972 q 893 928 850 972 q 936 806 936 885 l 936 167 q 893 44 936 88 q 769 0 850 0 m 767 882 l 546 882 q 474 807 474 882 l 474 164 q 546 89 474 89 l 767 89 q 839 164 839 89 l 839 807 q 767 882 839 882 z "},"Я":{"ha":760,"x_min":71,"x_max":647,"o":"m 254 972 l 647 972 l 647 0 l 550 0 l 550 424 l 385 424 l 183 0 l 71 0 l 281 424 l 254 424 q 131 467 174 424 q 88 590 88 511 l 88 806 q 131 928 88 885 q 254 972 174 972 m 550 513 l 550 882 l 257 882 q 185 807 185 882 l 185 588 q 257 513 185 513 l 550 513 z "},"а":{"ha":653,"x_min":68,"x_max":569,"o":"m 90 656 l 229 694 l 388 694 q 512 651 469 694 q 554 528 554 607 l 554 110 l 569 0 l 474 -11 l 458 113 l 303 0 l 235 0 q 111 44 154 0 q 68 167 68 88 l 68 251 q 111 374 68 331 q 235 418 154 418 l 457 418 l 457 529 q 385 604 457 604 l 229 604 l 115 571 l 90 656 m 238 89 l 278 89 l 457 219 l 457 332 l 238 332 q 165 257 165 332 l 165 164 q 238 89 165 89 z "},"б":{"ha":660,"x_min":90,"x_max":576,"o":"m 407 604 l 281 604 q 209 585 231 604 q 188 521 188 565 l 188 164 q 260 89 188 89 l 389 89 q 458 104 438 89 q 479 164 479 119 l 479 508 q 463 583 479 561 q 407 604 447 604 m 431 910 l 260 910 q 205 892 222 910 q 188 835 188 875 l 188 731 l 174 658 l 179 656 q 286 694 213 694 l 410 694 q 534 651 492 694 q 576 528 576 607 l 576 199 q 539 50 576 100 q 410 0 501 0 l 257 0 q 128 50 165 0 q 90 199 90 100 l 90 800 q 128 949 90 899 q 257 1000 165 1000 l 431 1000 l 544 1033 l 568 949 l 431 910 z "},"в":{"ha":647,"x_min":99,"x_max":583,"o":"m 196 89 l 414 89 q 486 164 486 89 l 486 235 q 407 310 486 310 l 196 310 l 196 89 m 385 604 l 196 604 l 196 400 l 378 400 q 457 475 457 400 l 457 529 q 385 604 457 604 m 417 0 l 99 0 l 99 694 l 388 694 q 511 651 468 694 q 554 528 554 607 l 554 492 q 485 365 554 389 l 472 365 l 472 360 l 486 360 q 583 222 583 332 l 583 167 q 541 43 583 86 q 417 0 499 0 z "},"г":{"ha":522,"x_min":97,"x_max":493,"o":"m 97 694 l 493 694 l 493 604 l 194 604 l 194 0 l 97 0 l 97 694 z "},"д":{"ha":725,"x_min":22,"x_max":701,"o":"m 275 604 l 233 175 l 213 89 l 500 89 l 500 604 l 275 604 m 604 0 l 119 0 l 119 -75 l 133 -179 l 38 -190 l 22 -68 l 22 89 l 111 89 l 144 215 l 190 694 l 597 694 l 597 89 l 701 89 l 701 -68 l 686 -190 l 590 -179 l 604 -75 l 604 0 z "},"е":{"ha":610,"x_min":85,"x_max":550,"o":"m 251 0 q 127 43 169 0 q 85 167 85 86 l 85 528 q 127 651 85 607 q 251 694 169 694 l 383 694 q 508 651 465 694 q 550 528 550 607 l 550 383 l 474 315 l 182 315 l 182 164 q 254 89 182 89 l 400 89 l 513 122 l 538 38 l 400 0 l 251 0 m 182 529 l 182 404 l 433 404 l 453 419 l 453 529 q 381 604 453 604 l 254 604 q 182 529 182 604 z "},"ж":{"ha":883,"x_min":-6,"x_max":889,"o":"m 393 413 l 393 694 l 490 694 l 490 413 l 565 413 l 682 599 l 742 706 l 846 692 l 779 582 l 639 368 l 889 0 l 779 0 l 561 324 l 490 324 l 490 0 l 393 0 l 393 324 l 328 324 l 110 0 l -6 0 l 244 368 l 104 582 l 38 692 l 142 706 l 201 599 l 318 413 l 393 413 z "},"з":{"ha":585,"x_min":57,"x_max":521,"o":"m 354 0 l 194 0 l 57 38 l 81 122 l 194 89 l 351 89 q 424 164 424 89 l 424 238 q 344 314 424 314 l 179 314 l 179 403 l 315 403 q 394 478 394 403 l 394 529 q 322 604 394 604 l 201 604 l 110 578 l 86 663 l 201 694 l 325 694 q 449 651 406 694 q 492 528 492 607 l 492 494 q 422 368 492 394 l 410 368 l 410 363 l 424 363 q 521 226 521 335 l 521 167 q 478 43 521 86 q 354 0 436 0 z "},"и":{"ha":697,"x_min":85,"x_max":613,"o":"m 432 408 l 196 0 l 99 0 l 99 581 l 85 694 l 179 707 l 196 581 l 196 313 l 182 132 l 186 131 l 264 285 l 501 694 l 599 694 l 599 115 l 613 1 l 518 -11 l 501 115 l 501 382 l 515 563 l 510 564 l 432 408 z "},"й":{"ha":697,"x_min":85,"x_max":613,"o":"m 300 792 q 234 808 256 792 q 206 872 213 824 l 197 929 l 261 949 q 272 899 267 917 q 281 874 276 882 q 293 863 286 865 q 310 861 300 861 l 408 861 q 425 863 418 861 q 437 874 432 865 q 447 899 442 882 q 457 949 451 917 l 521 929 l 513 872 q 501 830 508 846 q 483 806 494 814 q 456 794 472 797 q 418 792 440 792 l 300 792 m 432 408 l 196 0 l 99 0 l 99 581 l 85 694 l 179 707 l 196 581 l 196 313 l 182 132 l 186 131 l 264 285 l 501 694 l 599 694 l 599 115 l 613 1 l 518 -11 l 501 115 l 501 382 l 515 563 l 510 564 l 432 408 z "},"к":{"ha":603,"x_min":78,"x_max":594,"o":"m 92 581 l 78 694 l 172 707 l 189 581 l 189 413 l 271 413 l 388 599 l 440 706 l 544 692 l 485 582 l 344 368 l 594 0 l 485 0 l 267 324 l 189 324 l 189 0 l 92 0 l 92 581 z "},"л":{"ha":679,"x_min":36,"x_max":594,"o":"m 581 114 l 594 0 l 500 -12 l 483 114 l 483 604 l 258 604 l 229 158 q 183 31 221 69 q 58 -8 146 -8 l 36 -8 l 36 81 l 58 81 q 117 97 101 81 q 138 161 133 114 l 174 694 l 581 694 l 581 114 z "},"м":{"ha":822,"x_min":99,"x_max":738,"o":"m 629 347 l 640 533 l 635 533 l 563 358 l 454 139 l 365 139 l 258 358 l 188 533 l 182 533 l 193 347 l 193 0 l 99 0 l 99 694 l 196 694 l 410 238 l 626 694 l 724 694 l 724 115 l 738 1 l 646 -11 l 629 115 l 629 347 z "},"н":{"ha":683,"x_min":85,"x_max":599,"o":"m 196 404 l 488 404 l 488 694 l 585 694 l 585 115 l 599 1 l 504 -11 l 488 115 l 488 315 l 196 315 l 196 0 l 99 0 l 99 581 l 85 694 l 179 707 l 196 581 l 196 404 z "},"о":{"ha":656,"x_min":85,"x_max":571,"o":"m 401 604 l 254 604 q 182 529 182 604 l 182 164 q 254 89 182 89 l 401 89 q 474 164 474 89 l 474 529 q 401 604 474 604 m 404 0 l 251 0 q 127 43 169 0 q 85 167 85 86 l 85 528 q 127 651 85 607 q 251 694 169 694 l 404 694 q 528 651 486 694 q 571 528 571 607 l 571 167 q 528 43 571 86 q 404 0 486 0 z "},"п":{"ha":683,"x_min":99,"x_max":599,"o":"m 488 604 l 196 604 l 196 0 l 99 0 l 99 694 l 585 694 l 585 115 l 599 1 l 504 -11 l 488 115 l 488 604 z "},"р":{"ha":669,"x_min":85,"x_max":585,"o":"m 99 581 l 85 692 l 179 704 l 192 606 l 349 694 l 418 694 q 542 651 499 694 q 585 528 585 607 l 585 167 q 542 44 585 88 q 418 0 499 0 l 351 0 l 196 31 l 196 -319 l 99 -319 l 99 581 m 371 604 l 196 507 l 196 119 l 354 89 l 415 89 q 488 164 488 89 l 488 529 q 415 604 488 604 l 371 604 z "},"с":{"ha":576,"x_min":85,"x_max":549,"o":"m 251 694 l 404 694 l 542 656 l 518 571 l 404 604 l 254 604 q 182 529 182 604 l 182 164 q 254 89 182 89 l 411 89 l 525 122 l 549 38 l 411 0 l 251 0 q 127 43 169 0 q 85 167 85 86 l 85 528 q 127 651 85 607 q 251 694 169 694 z "},"т":{"ha":531,"x_min":29,"x_max":501,"o":"m 29 694 l 501 694 l 501 604 l 321 604 l 321 0 l 224 0 l 224 604 l 29 604 l 29 694 z "},"у":{"ha":683,"x_min":85,"x_max":585,"o":"m 488 -132 l 488 97 l 333 0 l 265 0 q 141 43 183 0 q 99 167 99 86 l 99 582 l 85 692 l 179 704 l 196 576 l 196 164 q 268 89 196 89 l 308 89 l 488 206 l 488 694 l 585 694 l 585 -132 q 393 -319 585 -319 l 257 -319 l 118 -282 l 143 -197 l 257 -231 l 403 -231 q 468 -207 449 -231 q 488 -132 488 -183 z "},"ф":{"ha":926,"x_min":85,"x_max":840,"o":"m 674 -8 l 629 -4 l 511 15 l 511 -319 l 414 -319 l 414 15 l 251 -8 q 128 35 171 -8 q 85 158 85 79 l 85 508 q 125 655 85 607 q 260 703 165 703 l 414 679 l 414 771 l 400 885 l 494 897 l 511 771 l 511 679 l 674 703 q 802 653 764 703 q 840 508 840 604 l 840 158 q 798 35 840 78 q 674 -8 756 -8 m 182 538 l 182 156 q 202 97 182 114 q 265 81 222 81 l 414 103 l 414 592 l 268 613 q 202 597 222 613 q 182 538 182 581 m 743 156 l 743 538 q 723 597 743 581 q 658 613 703 613 l 511 592 l 511 103 l 660 81 q 724 97 704 81 q 743 156 743 113 z "},"х":{"ha":596,"x_min":22,"x_max":574,"o":"m 300 424 l 394 599 l 433 710 l 538 694 l 490 583 l 368 364 l 574 0 l 468 0 l 301 306 l 296 306 l 128 0 l 22 0 l 228 364 l 44 694 l 151 694 l 294 424 l 300 424 z "},"ц":{"ha":714,"x_min":85,"x_max":696,"o":"m 196 89 l 488 89 l 488 694 l 585 694 l 585 89 l 696 89 l 696 -68 l 681 -190 l 585 -179 l 599 -75 l 599 0 l 99 0 l 99 581 l 85 694 l 179 707 l 196 581 l 196 89 z "},"ч":{"ha":651,"x_min":53,"x_max":567,"o":"m 164 444 q 250 356 164 356 l 356 356 l 456 383 l 456 694 l 553 694 l 553 115 l 567 1 l 472 -11 l 456 115 l 456 293 l 357 265 l 247 265 q 114 313 161 265 q 67 446 67 361 l 67 581 l 53 694 l 147 707 l 164 581 l 164 444 z "},"ш":{"ha":928,"x_min":85,"x_max":829,"o":"m 513 89 l 732 89 l 732 694 l 829 694 l 829 0 l 99 0 l 99 581 l 85 694 l 179 707 l 196 581 l 196 89 l 415 89 l 415 581 l 401 694 l 496 707 l 513 581 l 513 89 z "},"щ":{"ha":958,"x_min":85,"x_max":940,"o":"m 732 694 l 829 694 l 829 89 l 940 89 l 940 -71 l 925 -190 l 829 -179 l 843 -75 l 843 0 l 99 0 l 99 581 l 85 694 l 179 707 l 196 581 l 196 89 l 415 89 l 415 581 l 401 694 l 496 707 l 513 581 l 513 89 l 732 89 l 732 694 z "},"ъ":{"ha":708,"x_min":3,"x_max":661,"o":"m 492 338 l 274 338 l 274 89 l 492 89 q 564 164 564 89 l 564 263 q 492 338 564 338 m 125 694 l 274 694 l 274 426 l 494 426 q 619 383 576 426 q 661 260 661 340 l 661 167 q 619 43 661 86 q 494 0 576 0 l 176 0 l 176 604 l 125 604 l 14 585 l 3 681 l 125 694 z "},"ы":{"ha":881,"x_min":85,"x_max":796,"o":"m 99 581 l 85 694 l 179 707 l 196 581 l 196 426 l 417 426 q 541 383 499 426 q 583 260 583 340 l 583 167 q 541 43 583 86 q 417 0 499 0 l 99 0 l 99 581 m 414 338 l 196 338 l 196 89 l 414 89 q 469 106 453 89 q 486 164 486 122 l 486 263 q 469 320 486 303 q 414 338 453 338 m 685 694 l 782 694 l 782 114 l 796 0 l 701 -12 l 685 114 l 685 694 z "},"ь":{"ha":631,"x_min":85,"x_max":583,"o":"m 196 426 l 417 426 q 541 383 499 426 q 583 260 583 340 l 583 167 q 541 43 583 86 q 417 0 499 0 l 99 0 l 99 581 l 85 694 l 179 707 l 196 581 l 196 426 m 414 338 l 196 338 l 196 89 l 414 89 q 486 164 486 89 l 486 263 q 414 338 486 338 z "},"э":{"ha":592,"x_min":36,"x_max":507,"o":"m 340 0 l 174 0 l 36 38 l 60 122 l 174 89 l 338 89 q 410 164 410 89 l 410 313 l 168 313 l 168 403 l 410 403 l 410 529 q 338 604 410 604 l 194 604 l 81 571 l 57 656 l 194 694 l 340 694 q 465 651 422 694 q 507 528 507 607 l 507 167 q 465 43 507 86 q 340 0 422 0 z "},"ю":{"ha":878,"x_min":85,"x_max":793,"o":"m 99 581 l 85 694 l 179 707 l 196 581 l 196 404 l 321 404 l 321 528 q 363 651 321 607 q 488 694 406 694 l 626 694 q 751 651 708 694 q 793 528 793 607 l 793 167 q 751 43 793 86 q 626 0 708 0 l 488 0 q 363 43 406 0 q 321 167 321 86 l 321 315 l 196 315 l 196 0 l 99 0 l 99 581 m 624 604 l 490 604 q 418 529 418 604 l 418 164 q 490 89 418 89 l 624 89 q 696 164 696 89 l 696 529 q 624 604 696 604 z "},"я":{"ha":654,"x_min":60,"x_max":569,"o":"m 556 115 l 569 1 l 475 -11 l 458 115 l 458 281 l 344 281 l 175 0 l 60 0 l 242 281 q 110 331 149 286 q 71 469 71 375 l 71 528 q 113 651 71 607 q 238 694 156 694 l 556 694 l 556 115 m 240 369 l 458 369 l 458 604 l 240 604 q 185 584 201 604 q 168 517 168 564 l 168 444 q 240 369 168 369 z "},"ё":{"ha":610,"x_min":85,"x_max":550,"o":"m 251 0 q 127 43 169 0 q 85 167 85 86 l 85 528 q 127 651 85 607 q 251 694 169 694 l 383 694 q 508 651 465 694 q 550 528 550 607 l 550 383 l 474 315 l 182 315 l 182 164 q 254 89 182 89 l 400 89 l 513 122 l 538 38 l 400 0 l 251 0 m 182 529 l 182 404 l 433 404 l 453 419 l 453 529 q 381 604 453 604 l 254 604 q 182 529 182 604 m 211 853 l 188 853 q 151 867 165 853 q 136 904 136 882 l 136 928 q 151 965 136 951 q 188 979 165 979 l 211 979 q 249 965 235 979 q 263 928 263 951 l 263 904 q 249 867 263 882 q 211 853 235 853 m 440 853 l 417 853 q 379 867 393 853 q 365 904 365 882 l 365 928 q 379 965 365 951 q 417 979 393 979 l 440 979 q 477 965 463 979 q 492 928 492 951 l 492 904 q 477 867 492 882 q 440 853 463 853 z "},"ђ":{"ha":717,"x_min":15,"x_max":625,"o":"m 236 0 l 139 0 l 139 743 l 15 743 l 15 821 l 139 835 l 139 942 l 129 1019 l 221 1049 l 236 938 l 236 835 l 476 835 l 476 743 l 236 743 l 236 539 l 389 625 l 458 625 q 582 581 539 625 q 625 458 625 538 l 625 -68 q 581 -234 625 -183 q 426 -285 536 -285 l 310 -253 l 335 -168 l 426 -196 l 443 -196 q 511 -168 494 -196 q 528 -68 528 -140 l 528 443 q 510 515 528 494 q 443 535 492 535 l 411 535 l 236 439 l 236 0 z "},"ѓ":{"ha":522,"x_min":97,"x_max":493,"o":"m 97 694 l 493 694 l 493 604 l 194 604 l 194 0 l 97 0 l 97 694 m 226 804 l 406 994 q 469 919 463 974 l 265 765 l 226 804 z "},"є":{"ha":592,"x_min":85,"x_max":556,"o":"m 556 38 l 418 0 l 251 0 q 127 43 169 0 q 85 167 85 86 l 85 503 q 124 646 85 597 q 251 694 163 694 l 389 694 l 431 689 l 549 656 l 525 571 l 432 597 l 389 604 l 254 604 q 182 529 182 604 l 182 403 l 424 403 l 424 313 l 182 313 l 182 164 q 254 89 182 89 l 396 89 l 439 96 l 532 122 l 556 38 z "},"ѕ":{"ha":553,"x_min":85,"x_max":525,"o":"m 381 604 l 267 604 q 210 585 228 604 q 192 519 192 567 q 195 497 192 507 q 209 476 199 486 q 224 461 219 465 q 456 311 229 457 q 525 171 525 267 q 353 0 525 0 l 224 0 l 85 38 l 110 122 l 224 89 l 356 89 q 428 164 428 89 q 421 219 428 207 q 390 246 414 231 l 189 378 q 115 443 136 413 q 94 524 94 474 q 137 650 94 606 q 261 694 179 694 l 381 694 l 518 656 l 494 571 l 381 604 z "},"і":{"ha":294,"x_min":83,"x_max":207,"o":"m 99 0 l 99 583 l 83 694 l 179 707 l 196 582 l 196 0 l 99 0 m 158 836 l 136 836 q 100 849 114 836 q 86 885 86 863 l 86 907 q 100 943 86 929 q 136 957 114 957 l 158 957 q 194 943 181 957 q 207 907 207 929 l 207 885 q 194 849 207 863 q 158 836 181 836 z "},"ї":{"ha":294,"x_min":-26,"x_max":329,"o":"m 49 853 l 25 853 q -12 867 3 853 q -26 904 -26 882 l -26 928 q -12 965 -26 951 q 25 979 3 979 l 49 979 q 86 965 72 979 q 100 928 100 951 l 100 904 q 86 867 100 882 q 49 853 72 853 m 278 853 l 254 853 q 217 867 231 853 q 203 904 203 882 l 203 928 q 217 965 203 951 q 254 979 231 979 l 278 979 q 315 965 300 979 q 329 928 329 951 l 329 904 q 315 867 329 882 q 278 853 300 853 m 99 0 l 99 583 l 83 694 l 179 707 l 196 582 l 196 0 l 99 0 z "},"ј":{"ha":294,"x_min":-119,"x_max":207,"o":"m 4 -324 l -37 -314 l -119 -290 l -94 -206 l -3 -233 l 14 -233 q 79 -210 60 -233 q 99 -135 99 -186 l 99 583 l 83 694 l 179 707 l 196 582 l 196 -99 q 153 -269 196 -214 q 4 -324 111 -324 m 157 836 l 135 836 q 99 849 113 836 q 86 885 86 863 l 86 907 q 99 943 86 929 q 135 957 113 957 l 157 957 q 193 943 179 957 q 207 907 207 929 l 207 885 q 193 849 207 863 q 157 836 179 836 z "},"љ":{"ha":1074,"x_min":36,"x_max":974,"o":"m 804 338 l 586 338 l 586 89 l 804 89 q 876 164 876 89 l 876 263 q 804 338 876 338 m 489 604 l 258 604 l 229 158 q 183 31 221 69 q 58 -8 146 -8 l 36 -8 l 36 81 l 58 81 q 117 97 101 81 q 138 161 133 114 l 174 694 l 586 694 l 586 426 l 807 426 q 931 383 889 426 q 974 260 974 340 l 974 167 q 931 43 974 86 q 807 0 889 0 l 489 0 l 489 604 z "},"њ":{"ha":1057,"x_min":85,"x_max":972,"o":"m 803 315 l 585 315 l 585 89 l 785 89 q 854 104 833 89 q 875 164 875 119 l 875 224 q 859 294 875 274 q 803 315 843 315 m 488 404 l 488 694 l 585 694 l 585 404 l 806 404 q 930 361 888 404 q 972 238 972 318 l 972 167 q 930 43 972 86 q 806 0 888 0 l 488 0 l 488 315 l 196 315 l 196 0 l 99 0 l 99 581 l 85 694 l 179 707 l 196 581 l 196 404 l 488 404 z "},"ћ":{"ha":781,"x_min":79,"x_max":703,"o":"m 607 -11 l 592 111 l 592 513 q 574 584 592 564 q 507 604 556 604 l 475 604 l 300 507 l 300 0 l 203 0 l 203 771 l 79 771 l 79 849 l 203 863 l 203 942 l 193 1019 l 285 1049 l 300 938 l 300 863 l 485 863 l 485 771 l 300 771 l 300 608 l 453 694 l 522 694 q 651 644 613 694 q 689 494 689 593 l 689 106 l 703 0 l 607 -11 z "},"ќ":{"ha":603,"x_min":78,"x_max":594,"o":"m 92 581 l 78 694 l 172 707 l 189 581 l 189 413 l 271 413 l 388 599 l 440 706 l 544 692 l 485 582 l 344 368 l 594 0 l 485 0 l 267 324 l 189 324 l 189 0 l 92 0 l 92 581 m 221 804 l 400 994 q 464 919 457 974 l 260 765 l 221 804 z "},"ў":{"ha":699,"x_min":85,"x_max":585,"o":"m 285 792 q 219 808 240 792 q 190 872 197 824 l 182 929 l 246 949 q 256 899 251 917 q 266 874 261 882 q 278 863 271 865 q 294 861 285 861 l 393 861 q 410 863 403 861 q 422 874 417 865 q 431 899 426 882 q 442 949 436 917 l 506 929 l 497 872 q 486 830 493 846 q 468 806 479 814 q 441 794 457 797 q 403 792 425 792 l 285 792 m 488 -132 l 488 97 l 333 0 l 265 0 q 141 43 183 0 q 99 167 99 86 l 99 582 l 85 692 l 179 704 l 196 576 l 196 164 q 268 89 196 89 l 308 89 l 488 206 l 488 694 l 585 694 l 585 -132 q 393 -319 585 -319 l 257 -319 l 118 -282 l 143 -197 l 257 -231 l 403 -231 q 468 -207 449 -231 q 488 -132 488 -183 z "},"џ":{"ha":740,"x_min":126,"x_max":613,"o":"m 418 -236 l 321 -236 l 321 0 l 126 0 l 126 694 l 224 694 l 224 89 l 515 89 l 515 694 l 613 694 l 613 0 l 418 0 l 418 -236 z "},"Ґ":{"ha":614,"x_min":113,"x_max":590,"o":"m 576 882 l 210 882 l 210 0 l 113 0 l 113 972 l 486 972 l 486 975 l 501 1097 l 590 1086 l 576 982 l 576 882 z "},"ґ":{"ha":522,"x_min":97,"x_max":507,"o":"m 493 604 l 194 604 l 194 0 l 97 0 l 97 694 l 403 694 l 403 697 l 418 819 l 507 808 l 493 704 l 493 604 z "},"–":{"ha":715,"x_min":64,"x_max":651,"o":"m 651 339 l 64 339 l 64 424 l 651 424 l 651 339 z "},"—":{"ha":739,"x_min":-6,"x_max":744,"o":"m 744 339 l -6 339 l -6 424 l 744 424 l 744 339 z "},"‘":{"ha":308,"x_min":93,"x_max":213,"o":"m 201 1051 l 156 925 q 213 878 213 921 l 213 853 q 199 819 213 832 q 165 806 186 806 l 140 806 q 106 819 119 806 q 93 853 93 832 l 93 921 l 147 1069 l 201 1051 z "},"’":{"ha":308,"x_min":93,"x_max":213,"o":"m 106 753 l 150 878 q 93 926 93 878 l 93 950 q 107 985 93 971 q 142 999 121 999 l 165 999 q 199 985 186 999 q 213 950 213 971 l 213 883 l 158 733 l 106 753 z "},"‚":{"ha":322,"x_min":101,"x_max":221,"o":"m 114 -133 l 158 -8 q 101 40 101 -8 l 101 64 q 115 99 101 86 q 150 113 128 113 l 174 113 q 208 99 196 113 q 221 64 221 86 l 221 -3 l 167 -153 l 114 -133 z "},"“":{"ha":475,"x_min":79,"x_max":396,"o":"m 385 1051 l 339 926 q 396 878 396 922 l 396 854 q 383 819 396 832 q 349 806 369 806 l 324 806 q 290 819 303 806 q 276 854 276 833 l 276 921 l 331 1071 l 385 1051 m 186 1051 l 142 926 q 199 878 199 922 l 199 854 q 185 819 199 832 q 150 806 171 806 l 126 806 q 92 819 106 806 q 79 854 79 833 l 79 921 l 133 1071 l 186 1051 z "},"”":{"ha":475,"x_min":79,"x_max":396,"o":"m 90 732 l 136 857 q 79 906 79 857 l 79 929 q 92 964 79 950 q 126 978 106 978 l 151 978 q 185 964 172 978 q 199 929 199 950 l 199 863 l 144 713 l 90 732 m 289 732 l 333 857 q 276 906 276 857 l 276 929 q 290 964 276 950 q 325 978 304 978 l 349 978 q 383 964 369 978 q 396 929 396 950 l 396 863 l 342 713 l 289 732 z "},"„":{"ha":519,"x_min":101,"x_max":419,"o":"m 311 -133 l 357 -8 q 300 40 300 -8 l 300 64 q 313 99 300 86 q 347 113 326 113 l 372 113 q 406 99 393 113 q 419 64 419 86 l 419 -3 l 365 -153 l 311 -133 m 114 -133 l 158 -8 q 101 40 101 -8 l 101 64 q 115 99 101 86 q 150 113 128 113 l 174 113 q 208 99 196 113 q 221 64 221 86 l 221 -3 l 167 -153 l 114 -133 z "},"•":{"ha":388,"x_min":92,"x_max":296,"o":"m 214 393 l 174 393 q 115 417 139 393 q 92 475 92 440 l 92 515 q 115 574 92 550 q 174 597 139 597 l 214 597 q 272 574 249 597 q 296 515 296 550 l 296 475 q 272 417 296 440 q 214 393 249 393 z "},"‹":{"ha":590,"x_min":74,"x_max":461,"o":"m 201 401 l 461 154 l 411 97 l 74 378 l 74 429 l 410 710 l 460 653 l 201 406 l 201 401 z "},"›":{"ha":590,"x_min":121,"x_max":508,"o":"m 121 154 l 381 401 l 381 406 l 122 653 l 172 710 l 508 429 l 508 378 l 171 97 l 121 154 z "},"⁄":{"ha":569,"x_min":32,"x_max":397,"o":"m 99 -29 l 32 -8 l 331 771 l 397 750 l 99 -29 z "},"⁴":{"ha":471,"x_min":36,"x_max":393,"o":"m 338 1042 l 338 688 l 393 688 l 393 617 l 338 617 l 338 521 l 263 521 l 263 617 l 36 617 l 36 688 l 263 1042 l 338 1042 m 121 688 l 263 688 l 263 915 l 121 688 z "},"€":{"ha":694,"x_min":8,"x_max":644,"o":"m 8 386 l 14 464 l 92 464 l 92 540 l 8 540 l 14 618 l 92 618 l 92 806 q 134 928 92 885 q 258 972 176 972 l 490 972 l 629 933 l 604 849 l 490 882 l 261 882 q 189 807 189 882 l 189 618 l 517 618 l 511 540 l 189 540 l 189 464 l 472 464 l 467 386 l 189 386 l 189 164 q 261 89 189 89 l 507 89 l 621 122 l 644 38 l 507 0 l 258 0 q 134 43 176 0 q 92 167 92 86 l 92 386 l 8 386 z "},"₴":{"ha":704,"x_min":106,"x_max":675,"o":"m 375 397 l 265 311 q 240 291 249 300 q 226 273 231 282 q 221 251 222 264 q 219 219 219 239 l 219 171 q 241 110 219 131 q 299 89 263 89 l 510 89 l 624 122 l 647 38 l 510 0 l 296 0 q 167 47 213 0 q 122 174 122 94 l 122 232 q 138 311 122 276 q 199 378 154 346 l 226 397 l 106 397 l 106 475 l 675 475 l 675 397 l 375 397 m 106 551 l 106 629 l 432 629 q 490 673 481 664 q 503 692 499 682 q 510 714 508 701 q 511 744 511 726 l 511 800 q 490 861 511 840 q 432 882 468 882 l 257 882 l 143 849 l 119 933 l 257 972 l 435 972 q 563 925 517 972 q 608 799 608 878 l 608 733 q 576 629 608 672 l 675 629 l 675 551 l 106 551 z "},"₶":{"ha":828,"x_min":85,"x_max":743,"o":"m 274 233 l 274 0 l 176 0 l 176 233 l 85 233 l 85 318 l 176 318 l 176 972 l 576 972 q 701 928 658 972 q 743 806 743 885 l 743 549 q 701 426 743 469 q 576 382 658 382 l 274 382 l 274 318 l 575 318 l 575 233 l 274 233 m 274 471 l 574 471 q 628 488 610 471 q 646 546 646 506 l 646 807 q 628 865 646 847 q 574 882 610 882 l 274 882 l 274 471 z "},"№":{"ha":1299,"x_min":108,"x_max":1207,"o":"m 972 556 q 932 580 940 556 q 924 635 924 604 l 924 850 q 940 890 924 881 q 986 900 957 900 l 1079 900 q 1120 876 1111 900 q 1129 819 1129 851 l 1129 604 q 1113 565 1129 575 q 1067 556 1096 556 l 972 556 m 1206 301 l 1206 375 l 847 375 l 847 301 l 1206 301 m 1082 485 q 1177 516 1147 485 q 1207 610 1207 547 l 1207 846 q 1177 940 1207 908 q 1082 971 1147 971 l 971 971 q 876 940 906 971 q 846 846 846 908 l 846 610 q 876 516 846 547 q 971 485 906 485 l 1082 485 m 592 0 l 253 678 l 194 817 l 189 817 l 206 557 l 206 0 l 108 0 l 108 972 l 206 972 l 543 293 l 601 154 l 607 154 l 592 414 l 592 972 l 689 972 l 689 0 l 592 0 z "},"™":{"ha":875,"x_min":92,"x_max":783,"o":"m 719 839 l 683 746 l 624 621 l 571 621 l 511 746 l 475 839 l 471 839 l 478 710 l 478 526 l 411 526 l 411 972 l 478 972 l 597 703 l 717 972 l 783 972 l 783 526 l 717 526 l 717 710 l 724 839 l 719 839 m 92 972 l 358 972 l 358 913 l 258 913 l 258 526 l 192 526 l 192 913 l 92 913 l 92 972 z "},"−":{"ha":640,"x_min":106,"x_max":535,"o":"m 106 353 l 106 438 l 535 438 l 535 353 l 106 353 z "},"":{"ha":486,"x_min":86,"x_max":410,"o":"m 189 792 q 123 808 144 792 q 94 872 101 824 l 86 929 l 150 949 q 160 899 156 917 q 170 874 165 882 q 182 863 175 865 q 199 861 189 861 l 297 861 q 314 863 307 861 q 326 874 321 865 q 335 899 331 882 q 346 949 340 917 l 410 929 l 401 872 q 390 830 397 846 q 372 806 383 814 q 345 794 361 797 q 307 792 329 792 l 189 792 z "}}}
